<svg width="83" height="15" viewBox="0 0 83 15" fill="none" xmlns="http://www.w3.org/2000/svg">
<path d="M30.8944 13.348C30.2954 13.348 29.7501 13.2942 29.2587 13.1866C28.7825 13.079 28.3602 12.933 27.9916 12.7485C27.623 12.564 27.3004 12.3565 27.024 12.1259C26.7475 11.8799 26.5095 11.634 26.3098 11.388C25.849 10.8192 25.5342 10.1659 25.3652 9.42798H28.0146C28.1375 9.7508 28.3295 10.0429 28.5906 10.3042C28.8056 10.5194 29.0974 10.7193 29.466 10.9038C29.8346 11.0729 30.3107 11.1574 30.8944 11.1574C31.3551 11.1574 31.7391 11.119 32.0462 11.0421C32.3534 10.9652 32.5992 10.8653 32.7835 10.7423C32.9831 10.604 33.1214 10.4503 33.1981 10.2812C33.2749 10.1121 33.3133 9.94296 33.3133 9.77386C33.3133 9.43566 33.129 9.17433 32.7604 8.98986C32.4072 8.80538 31.9541 8.65166 31.4012 8.52867C30.8483 8.40569 30.257 8.27502 29.6273 8.13667C28.9976 7.99831 28.4062 7.79847 27.8533 7.53713C27.3004 7.26042 26.8397 6.89148 26.4711 6.4303C26.1178 5.96912 25.9412 5.35421 25.9412 4.58557C25.9412 4.15513 26.041 3.73239 26.2407 3.31732C26.4557 2.90226 26.7629 2.53331 27.1622 2.21049C27.5615 1.88766 28.0453 1.62632 28.6136 1.42648C29.1819 1.22663 29.8269 1.12671 30.5488 1.12671C31.7007 1.12671 32.6145 1.31887 33.2903 1.70319C33.9814 2.0875 34.5036 2.51025 34.8569 2.97144C35.2716 3.50948 35.5634 4.12439 35.7323 4.81616H33.1981C33.0906 4.53945 32.9217 4.29349 32.6913 4.07827C32.4916 3.8938 32.2152 3.7247 31.8619 3.57097C31.5241 3.40187 31.0863 3.31732 30.5488 3.31732C29.8116 3.31732 29.2817 3.44799 28.9592 3.70933C28.6366 3.97066 28.4754 4.27043 28.4754 4.60863C28.4754 4.94683 28.652 5.20817 29.0052 5.39264C29.3738 5.56174 29.8346 5.70778 30.3875 5.83076C30.9404 5.95374 31.5317 6.08441 32.1614 6.22277C32.7911 6.36112 33.3825 6.56865 33.9354 6.84536C34.4883 7.1067 34.9414 7.46796 35.2946 7.92914C35.6632 8.39032 35.8475 9.00523 35.8475 9.77386C35.8475 10.235 35.74 10.6809 35.525 11.1113C35.31 11.5417 34.9951 11.926 34.5804 12.2642C34.1657 12.5871 33.6435 12.8484 33.0138 13.0483C32.3995 13.2481 31.693 13.348 30.8944 13.348Z" fill="#737380"/>
<path d="M37.9155 1.3573H40.3345V2.97144H40.4497C40.6494 2.63324 40.9105 2.32578 41.233 2.04907C41.5095 1.81848 41.8627 1.61095 42.2927 1.42648C42.7228 1.22663 43.2603 1.12671 43.9054 1.12671C44.658 1.12671 45.2723 1.242 45.7484 1.4726C46.2399 1.70319 46.6316 1.95684 46.9234 2.23354C47.2613 2.55637 47.5224 2.91763 47.7067 3.31732H47.8219C48.0369 2.91763 48.3364 2.55637 48.7203 2.23354C49.0275 1.95684 49.4345 1.70319 49.9414 1.4726C50.4636 1.242 51.1009 1.12671 51.8535 1.12671C53.1897 1.12671 54.2495 1.54946 55.0328 2.39496C55.8314 3.22509 56.2307 4.4549 56.2307 6.08441V13.1174H53.8117V6.19971C53.8117 5.21585 53.589 4.49333 53.1436 4.03215C52.7136 3.5556 52.0916 3.31732 51.2776 3.31732C50.8782 3.31732 50.4943 3.40187 50.1257 3.57097C49.7724 3.7247 49.4576 3.95529 49.1811 4.26274C48.9047 4.55483 48.682 4.9084 48.513 5.32346C48.3594 5.72315 48.2826 6.16896 48.2826 6.66089V13.1174H45.8636V6.19971C45.8636 5.21585 45.6409 4.49333 45.1955 4.03215C44.7655 3.5556 44.1435 3.31732 43.3295 3.31732C42.9301 3.31732 42.5462 3.40187 42.1776 3.57097C41.8243 3.7247 41.5095 3.95529 41.233 4.26274C40.9565 4.55483 40.7338 4.9084 40.5649 5.32346C40.4113 5.72315 40.3345 6.16896 40.3345 6.66089V13.1174H37.9155V1.3573Z" fill="#737380"/>
<path d="M63.4913 13.348C62.0476 13.348 60.9187 12.933 60.1047 12.1028C59.2907 11.2573 58.8837 10.0198 58.8837 8.39032V1.3573H61.3027V8.15973C61.3027 9.20507 61.5331 9.96602 61.9938 10.4426C62.4546 10.9191 63.1457 11.1574 64.0672 11.1574C64.528 11.1574 64.9504 11.0729 65.3343 10.9038C65.7337 10.7347 66.0792 10.5041 66.371 10.212C66.6629 9.90453 66.8856 9.54327 67.0391 9.12821C67.2081 8.69777 67.2926 8.22122 67.2926 7.69855V1.3573H69.7115V13.1174H67.2926V11.5033H67.1774C66.9623 11.8415 66.6782 12.1489 66.325 12.4257C66.0178 12.6562 65.6338 12.8715 65.1731 13.0713C64.7123 13.2558 64.1517 13.348 63.4913 13.348Z" fill="#737380"/>
<path d="M71.3206 1.3573H73.8548L76.389 10.9268H77.8864L80.4206 1.3573H82.9548L79.7295 13.1174H74.5459L71.3206 1.3573Z" fill="#737380"/>
<path fill-rule="evenodd" clip-rule="evenodd" d="M18.5571 2.35422C19.3453 1.63216 18.8349 0.317383 17.7664 0.317383L8.58308 0.317385C6.4873 0.317385 4.78833 2.01791 4.78833 4.11562V12.1429C4.78833 13.2248 6.07284 13.791 6.87019 13.0605L18.5571 2.35422ZM11.1738 14.3437C10.1427 14.3436 9.65803 13.0693 10.4284 12.3839L17.4411 6.14552C18.0197 5.63078 18.9349 6.04153 18.9349 6.81597L18.9349 7.90484C18.9349 11.4613 16.0516 14.3442 12.4952 14.3438L11.1738 14.3437Z" fill="#F2E5FF"/>
<path fill-rule="evenodd" clip-rule="evenodd" d="M18.5571 2.35422C19.3453 1.63216 18.8349 0.317383 17.7664 0.317383L8.58308 0.317385C6.4873 0.317385 4.78833 2.01791 4.78833 4.11562V12.1429C4.78833 13.2248 6.07284 13.791 6.87019 13.0605L18.5571 2.35422ZM11.1738 14.3437C10.1427 14.3436 9.65803 13.0693 10.4284 12.3839L17.4411 6.14552C18.0197 5.63078 18.9349 6.04153 18.9349 6.81597L18.9349 7.90484C18.9349 11.4613 16.0516 14.3442 12.4952 14.3438L11.1738 14.3437Z" fill="url(#paint0_linear_1042_3661)"/>
<defs>
<linearGradient id="paint0_linear_1042_3661" x1="16.4741" y1="2.23008" x2="12.1068" y2="14.8574" gradientUnits="userSpaceOnUse">
<stop stop-color="#FF6433"/>
<stop offset="1" stop-color="#FF39D4"/>
</linearGradient>
</defs>
</svg>
