<svg width="45" height="45" viewBox="0 0 45 45" fill="none" xmlns="http://www.w3.org/2000/svg">
<rect x="13.5552" y="10.9998" width="28.9132" height="3.61414" rx="1.80707" transform="rotate(45 13.5552 10.9998)" fill="#737380"/>
<rect x="13.5552" y="10.9998" width="28.9132" height="3.61414" rx="1.80707" transform="rotate(45 13.5552 10.9998)" fill="url(#paint0_linear_25_5762)"/>
<rect x="13.5552" y="10.9998" width="28.9132" height="3.61414" rx="1.80707" transform="rotate(45 13.5552 10.9998)" fill="url(#paint1_linear_25_5762)"/>
<rect x="13.5552" y="10.9998" width="28.9132" height="3.61414" rx="1.80707" transform="rotate(45 13.5552 10.9998)" fill="#737380"/>
<rect x="11" y="31.4446" width="28.9132" height="3.61414" rx="1.80707" transform="rotate(-45 11 31.4446)" fill="url(#paint2_linear_25_5762)"/>
<rect x="11" y="31.4446" width="28.9132" height="3.61414" rx="1.80707" transform="rotate(-45 11 31.4446)" fill="#737380"/>
<defs>
<linearGradient id="paint0_linear_25_5762" x1="38.9019" y1="15.7433" x2="36.8785" y2="20.4794" gradientUnits="userSpaceOnUse">
<stop stop-color="#52D084"/>
<stop offset="1" stop-color="#65D0AA"/>
</linearGradient>
<linearGradient id="paint1_linear_25_5762" x1="12.3479" y1="12.207" x2="41.6366" y2="11.229" gradientUnits="userSpaceOnUse">
<stop stop-color="#EF6033"/>
<stop offset="1" stop-color="#E62B9B"/>
</linearGradient>
<linearGradient id="paint2_linear_25_5762" x1="9.79276" y1="32.6518" x2="39.0814" y2="31.6739" gradientUnits="userSpaceOnUse">
<stop stop-color="#EF6033"/>
<stop offset="1" stop-color="#E62B9B"/>
</linearGradient>
</defs>
</svg>
