<svg width="109" height="37" viewBox="0 0 109 37" fill="none" xmlns="http://www.w3.org/2000/svg">
<path d="M10.7485 26.0044L13.5873 24.3575L13.3923 24.0107L10.5535 25.6577L10.7485 26.0044Z" fill="white"/>
<path d="M23.4037 28.8652C23.1436 29.0169 22.7319 29.0819 22.0818 29.0386C21.4533 28.9735 20.6515 28.8002 19.6764 28.4751C18.7012 28.1501 16.4258 27.4133 14.4104 26.7632C13.3919 26.4381 12.4601 26.1347 11.7666 25.8963C11.4199 25.788 11.1382 25.7013 10.9432 25.6363H10.9215V8.66834L13.522 7.15141L13.3052 6.80469L10.5098 8.42997V25.918C10.5098 25.918 17.596 28.2151 19.5463 28.8435C21.5183 29.472 22.8836 29.6237 23.5987 29.1902C23.9238 28.9952 24.7472 28.4751 25.5274 27.9767C26.0908 27.63 26.6109 27.2832 26.936 27.0882L26.6976 26.7415C26.3508 26.9582 25.8308 27.2832 25.2673 27.6516C24.5089 28.1717 23.7071 28.6702 23.4037 28.8652Z" fill="white"/>
<path d="M22.7327 12.6777L19.9373 14.303L20.154 14.6497L22.9494 13.0245L22.7327 12.6777Z" fill="white"/>
<path d="M16.5774 13.2846L16.9024 13.3713C17.0541 13.4146 18.0076 13.7397 19.0045 14.0431C19.8713 14.3248 20.1097 14.8882 20.1747 15.1699L20.2614 15.5167L20.6514 15.43L20.5648 15.0616C20.4781 14.6932 20.153 13.9997 19.1128 13.653C18.0943 13.3279 17.1408 13.0246 17.0108 12.9812L16.6641 12.8945L16.5774 13.2846Z" fill="white"/>
<path d="M18.8751 20.8905C19.0051 20.9339 19.1352 20.9772 19.2868 21.0206C20.8038 21.4973 21.8223 22.8409 21.8223 24.1411V24.5312H21.4105V24.1411C21.4105 23.0359 20.5221 21.844 19.1568 21.4106C19.0051 21.3673 18.8751 21.3239 18.7451 21.2806L18.7017 21.2589C18.2033 21.0856 17.7699 20.9555 17.4449 20.8472C17.2282 20.7822 17.0765 20.7172 16.9464 20.6738C16.8814 20.6522 16.8381 20.6305 16.8164 20.6305C16.7947 20.6305 16.7947 20.6305 16.7731 20.6088C16.7731 20.6088 16.7514 20.6088 16.7297 20.5871L16.9031 20.2188C16.9031 20.2188 16.9248 20.2187 16.9464 20.2404C16.9681 20.2621 17.0331 20.2621 17.0765 20.2838C17.1848 20.3271 17.3582 20.3704 17.5749 20.4571C17.8999 20.5655 18.3117 20.6955 18.8101 20.8689L18.8751 20.8905Z" fill="white"/>
<path d="M21.4318 23.057L24.054 21.5401L23.8589 21.1934L21.2368 22.7103L21.4318 23.057Z" fill="white"/>
<path d="M27.9977 23.4259C27.8893 22.8625 27.6943 22.3424 27.4342 21.844C26.5674 20.132 24.9205 18.8968 23.1218 18.2033C23.1218 18.2033 22.1033 17.8133 21.4099 17.7049V17.0331C21.4099 17.0331 21.995 17.2932 22.4717 17.4449C22.9268 17.5966 23.8586 17.9216 25.0505 17.6832C26.8925 17.3148 27.5643 15.6896 27.1309 13.9776C26.6541 12.1139 25.2889 10.7054 23.4686 10.0986C21.2365 9.38347 13.2834 6.80469 13.2834 6.80469V24.2927C13.2834 24.2927 13.4351 24.3361 13.6952 24.4227C13.7169 24.4227 13.7385 24.4444 13.7819 24.4444C14.0419 24.5311 14.3886 24.6395 14.8437 24.7911C14.9737 24.8345 15.1254 24.8995 15.2555 24.9212C15.2771 24.9212 15.2771 24.9212 15.2988 24.9428C15.5155 25.0078 15.7322 25.0729 15.9706 25.1595C16.0356 25.1812 16.0789 25.2029 16.1439 25.2246C16.274 25.2679 16.664 25.3762 16.7074 25.3979C17.5309 25.658 18.3977 25.9613 19.2211 26.2214H19.2428C19.3512 26.2647 19.4812 26.3081 19.5895 26.3297H19.6112C20.0446 26.4598 20.4564 26.6115 20.8681 26.7198C21.2148 26.8282 21.5399 26.9365 21.8216 27.0449C21.8649 27.0665 21.9299 27.0882 21.9516 27.0882C22.06 27.1316 22.1683 27.1749 22.2767 27.1966C22.3417 27.2182 22.385 27.2399 22.4284 27.2399C22.4934 27.2616 22.5367 27.2832 22.5801 27.2832C22.6884 27.3266 22.7534 27.3483 22.8618 27.3699C23.5119 27.5433 24.1837 27.6733 24.8555 27.6733H24.8771C26.329 27.6733 27.8026 27.0015 28.041 25.4413C28.1494 24.7695 28.1277 24.076 27.9977 23.4259ZM16.9891 10.532C16.9891 10.532 20.3697 11.6155 21.4965 12.0056C22.06 12.179 22.4934 12.504 22.7968 12.8941C23.1652 13.3708 23.3602 13.9559 23.3602 14.5627C23.3602 15.5379 22.2767 15.7546 21.0198 15.3428C20.8464 15.2778 20.6297 15.2128 20.3913 15.1478L19.0261 14.7144C18.3327 14.476 17.6825 14.2593 17.0108 14.0209V10.532H16.9891ZM24.292 23.0792C24.1837 24.0544 23.8586 24.8345 21.6049 24.1627C21.5832 24.1627 21.5616 24.1627 21.5399 24.141C21.4749 24.1194 21.4099 24.0977 21.3448 24.076C21.2582 24.0543 21.1932 24.0327 21.1065 23.9893C20.9548 23.946 20.8031 23.881 20.6514 23.8593C20.348 23.751 20.0663 23.686 19.8062 23.5776C19.6762 23.5343 19.5462 23.4909 19.4162 23.4693L18.8527 23.2959C18.7444 23.2525 18.636 23.2309 18.5277 23.1875L16.9674 22.6891V17.8783C16.9674 17.8783 20.3697 19.0268 22.1683 19.7636C23.0785 20.132 23.6419 20.7388 23.9453 21.3455C24.2704 21.9523 24.357 22.5808 24.292 23.0792Z" fill="white"/>
<path d="M14.1505 35.8863C14.2372 36.0597 14.4105 36.1681 14.6706 36.2331C14.844 36.2764 15.039 36.2331 15.0607 36.103C15.1257 35.8213 13.8688 35.6046 14.0205 34.9328C14.1072 34.5861 14.5189 34.4344 15.0173 34.5428C15.3857 34.6295 15.5807 34.8028 15.7108 35.1062L15.4074 35.2146C15.3207 35.0195 15.169 34.9112 14.8873 34.8462C14.6272 34.8028 14.4539 34.8462 14.4322 34.9762C14.3455 35.3446 15.5591 35.5396 15.4291 36.1247C15.364 36.4498 14.9523 36.5581 14.5189 36.4714C14.1938 36.4064 13.9771 36.2114 13.8254 35.973L14.1505 35.8863Z" fill="white"/>
<path d="M11.8759 33.589L11.2258 35.0409L11.7025 35.2576L11.5725 35.561L10.2939 34.9976L10.424 34.6942L10.9007 34.9109L11.5508 33.459L11.8759 33.589Z" fill="white"/>
<path d="M7.9751 31.8557C8.01844 31.7473 8.14847 31.3789 8.14847 31.3789L8.45185 31.5956C8.36517 31.834 8.30016 32.0073 8.27849 32.029C8.17014 32.3324 8.3435 32.4191 8.43018 32.4841C8.45185 32.5058 8.47352 32.5058 8.47352 32.5274C8.51686 32.5708 8.64689 32.6575 8.66856 32.6575L9.10196 32.0507L9.38368 32.2457L8.25682 33.806L7.69339 33.3943C7.34666 33.1342 7.10828 32.8525 7.36833 32.5058C7.52002 32.3107 7.67172 32.2891 7.86675 32.3324C7.9751 32.3541 8.06178 32.4408 8.14847 32.5058L8.19181 32.4624C8.10512 32.3974 7.9751 32.3541 7.95343 32.2457C7.88842 32.1374 7.91009 32.0073 7.9751 31.8557ZM8.47352 32.8958L8.21348 32.7225C8.01844 32.5924 7.78007 32.5274 7.65005 32.7225C7.49835 32.9175 7.62838 33.0909 7.84508 33.2426L8.10512 33.4159L8.47352 32.8958Z" fill="white"/>
<path d="M4.89768 30.9671L4.61597 30.6638L5.5478 28.8218L5.80784 29.1035L5.48278 29.7536L5.89452 30.2087L6.54464 29.927L6.80468 30.2087L4.89768 30.9671ZM5.09272 30.4687C5.07105 30.5337 5.00603 30.5771 4.96269 30.6204L5.00604 30.6638C5.04938 30.6204 5.09272 30.5554 5.15773 30.5337L5.67782 30.3604L5.30942 29.9703L5.09272 30.4687Z" fill="white"/>
<path d="M4.29105 26.9584L2.92582 27.7602L3.18586 28.1936L2.90415 28.3669L2.21069 27.1751L2.49241 27.0017L2.75245 27.4351L4.11769 26.6333L4.29105 26.9584Z" fill="white"/>
<path d="M1.19195 25.0073L0.758545 23.7287L1.0836 23.6204L1.40866 24.5522L1.8204 24.4005L1.51701 23.5337L1.84207 23.4253L2.14545 24.2922L2.60053 24.1405L2.27548 23.187L2.60053 23.0786L3.03394 24.3572L1.19195 25.0073Z" fill="white"/>
<path d="M1.79899 19.699C1.69064 19.7206 1.53895 19.6773 1.4306 19.6556V19.7206C1.53895 19.7423 1.69064 19.7206 1.77732 19.7856C1.88568 19.8723 2.03737 20.024 2.05904 20.3057C2.12405 20.8692 1.73398 21.3459 1.17055 21.4109C0.60712 21.4759 0.13037 21.0859 0.065359 20.5008C0.0220181 20.0674 0.173711 19.7206 0.498768 19.5473L0.62879 19.894C0.455427 20.0023 0.390416 20.2191 0.412086 20.4791C0.455427 20.8475 0.758813 21.0859 1.14888 21.0425C1.53895 20.9992 1.77732 20.6958 1.73398 20.2841C1.69064 19.8507 1.38726 19.764 1.23556 19.764L1.30057 20.2841L0.997187 20.3274L0.888835 19.4389L1.92902 19.3306L1.97236 19.6773L1.79899 19.699Z" fill="white"/>
<path d="M0.693454 16.5566C0.780136 16.5133 0.888488 16.5133 0.99684 16.5349V16.4699C0.910158 16.4699 0.780136 16.4482 0.715124 16.3832L0.151693 15.9282L0.195034 15.5381L1.12686 16.3182L2.01535 16.4049L1.97201 16.7733L1.08352 16.6866L0 17.2717L0.043341 16.8817L0.693454 16.5566Z" fill="white"/>
<path d="M2.27539 10.9221L2.53544 10.3804L3.0772 10.6404L2.81715 11.1822L2.27539 10.9221Z" fill="white"/>
<path d="M4.81128 5.98084L5.74311 5.02734L5.98148 5.26572L5.28803 5.98084L5.61309 6.28423L6.2632 5.61245L6.50157 5.85082L5.85146 6.5226L6.19819 6.84766L6.89164 6.13254L7.13002 6.37091L6.17652 7.34608L4.81128 5.98084Z" fill="white"/>
<path d="M8.84131 4.98433L8.51625 5.20104V3.98749L7.47607 3.57576L7.8228 3.33738L8.42957 3.6191C8.49458 3.66244 8.5596 3.72745 8.60294 3.79246L8.64628 3.77079C8.60294 3.70578 8.53793 3.6191 8.53793 3.53241V2.83896L8.88465 2.60059V3.74912L9.98984 4.18253L9.64312 4.4209L8.92799 4.16086C8.86298 4.13919 8.79797 4.05251 8.75463 3.98749L8.71129 4.00916C8.75463 4.07418 8.81964 4.16086 8.81964 4.22587L8.84131 4.98433Z" fill="white"/>
<path d="M11.6804 2.4706L11.9838 3.2074L11.6587 3.33742L10.9436 1.56045L11.6154 1.3004C12.0055 1.14871 12.3522 1.10537 12.5039 1.53877C12.6772 1.97218 12.3955 2.18889 12.0055 2.36225C11.9188 2.38392 11.8104 2.42726 11.6804 2.4706ZM11.8538 2.08054C12.0705 1.99385 12.2655 1.8855 12.1788 1.6688C12.0921 1.45209 11.8971 1.5171 11.6587 1.60379L11.377 1.71214L11.572 2.18889L11.8538 2.08054Z" fill="white"/>
<path d="M14.5193 0.411715L15.8412 0.17334L15.9062 0.498396L14.931 0.67176L15.0177 1.10517L15.9279 0.931805L15.9929 1.25686L15.0827 1.43022L15.1694 1.90697L16.1662 1.73361L16.2313 2.05867L14.8877 2.29704L14.5193 0.411715Z" fill="white"/>
<path d="M19.5036 1.45192C19.5253 1.56027 19.6336 1.92867 19.6336 1.92867H19.2652C19.2002 1.69029 19.1785 1.49526 19.1569 1.47359C19.0702 1.1702 18.8752 1.19187 18.7885 1.19187C18.7668 1.19187 18.7451 1.19187 18.7235 1.19187C18.6585 1.19187 18.5068 1.19187 18.4851 1.19187L18.4634 1.92867H18.1167L18.16 0L18.8535 0.0216705C19.2869 0.0216705 19.6336 0.130023 19.6336 0.585102C19.6336 0.823477 19.5036 0.931829 19.3302 1.01851C19.2436 1.06185 19.1135 1.04018 19.0052 1.04018V1.10519C19.1135 1.10519 19.2436 1.08352 19.3302 1.14853C19.4169 1.1702 19.4603 1.27856 19.5036 1.45192ZM18.4851 0.866817H18.7885C19.0269 0.866817 19.2436 0.780136 19.2436 0.541761C19.2436 0.303386 19.0485 0.238375 18.7885 0.216704H18.4851V0.866817Z" fill="white"/>
<path d="M22.06 0.34668L22.4067 0.411691L22.0166 2.29702L21.6699 2.23201L22.06 0.34668Z" fill="white"/>
<path d="M24.7264 1.0835L25.9616 1.58192L25.8315 1.8853L24.8997 1.5169L24.7264 1.92864L25.5932 2.27537L25.4631 2.57876L24.5963 2.23203L24.423 2.68711L25.3981 3.07718L25.2681 3.38056L24.0112 2.88214L24.7264 1.0835Z" fill="white"/>
<path d="M27.2829 4.48615L26.9795 4.29111L28.063 2.6875L28.3664 2.88253L28.4314 4.33445C28.4314 4.4428 28.3881 4.5945 28.3664 4.72452L28.4314 4.74619C28.4531 4.63784 28.4964 4.48615 28.5614 4.37779L29.1899 3.44597L29.4933 3.641L28.4097 5.24461L28.1064 5.04958L28.0413 3.59766C28.0413 3.46764 28.0847 3.33761 28.1064 3.20759L28.0413 3.18592C28.0197 3.29427 27.9763 3.44597 27.9113 3.55432L27.2829 4.48615Z" fill="white"/>
<path d="M30.5772 5.82979C30.989 5.43973 31.5957 5.4614 31.9858 5.87313C32.3759 6.30654 32.3325 6.71828 32.0942 7L31.8558 6.73995C31.9425 6.58826 32.0075 6.39322 31.7474 6.11151C31.5091 5.85146 31.1407 5.80812 30.8373 6.08984C30.5339 6.37155 30.5339 6.73995 30.7939 7C31.0757 7.30338 31.2707 7.26004 31.4224 7.17336L31.6608 7.43341C31.314 7.69345 30.924 7.65011 30.5339 7.23837C30.1438 6.82663 30.1655 6.21986 30.5772 5.82979Z" fill="white"/>
<path d="M34.0011 8.5166L34.6945 9.66514L34.4128 9.8385L33.9144 8.99335L33.546 9.21006L34.0227 10.0119L33.741 10.1852L33.2643 9.38342L32.8525 9.62179L33.3726 10.4886L33.0909 10.662L32.3975 9.49177L34.0011 8.5166Z" fill="white"/>
<path d="M35.8429 14.6055L35.9729 15.1906L35.3878 15.3206L35.2578 14.7355L35.8429 14.6055Z" fill="white"/>
<path d="M34.8681 20.1535L34.9114 19.8501L36.8618 20.1101L36.7534 20.9119C36.6884 21.4537 36.2333 21.8004 35.6699 21.7354C35.1065 21.6487 34.7164 21.172 34.8031 20.6302L34.8681 20.1535ZM35.1498 20.6086C35.1065 20.9986 35.3665 21.3237 35.7132 21.367C36.06 21.4104 36.3633 21.172 36.4284 20.8036L36.4717 20.4135L35.1931 20.2402L35.1498 20.6086Z" fill="white"/>
<path d="M35.9943 24.1413L35.5393 25.3982L35.2142 25.2899L35.5609 24.358L35.1492 24.2063L34.8241 25.0732L34.4991 24.9648L34.8241 24.098L34.369 23.9246L34.0223 24.8781L33.6973 24.7698L34.1523 23.4912L35.9943 24.1413Z" fill="white"/>
<path d="M33.4157 28.3453C33.6107 28.3019 33.7841 28.1936 33.9141 27.9769C34.0008 27.8252 34.0441 27.6301 33.9358 27.5651C33.6974 27.4134 33.0689 28.5186 32.4838 28.1502C32.1805 27.9552 32.2021 27.5218 32.4622 27.0884C32.6572 26.785 32.8956 26.655 33.2423 26.6333V26.9584C33.0256 26.98 32.8739 27.0667 32.7222 27.3051C32.5922 27.5218 32.5922 27.7168 32.7005 27.7818C33.0039 27.9769 33.6107 26.915 34.1308 27.2401C34.4125 27.4134 34.3692 27.8252 34.1308 28.2152C33.9574 28.497 33.7191 28.6487 33.4373 28.692L33.4157 28.3453Z" fill="white"/>
<path d="M32.2028 30.707L31.9644 30.967L30.5342 29.6668L30.7726 29.4067L32.2028 30.707Z" fill="white"/>
<path d="M27.8899 32.1801C27.955 32.2668 27.9983 32.4185 28.0416 32.5052L28.1066 32.4835C28.0633 32.3752 27.9766 32.2451 27.9983 32.1368C28.02 31.9851 28.085 31.7901 28.3017 31.6167C28.7568 31.27 29.3635 31.3566 29.7103 31.8117C30.057 32.2668 29.9703 32.8736 29.4936 33.2203C29.1468 33.4804 28.7568 33.5237 28.4534 33.3287L28.6917 33.0469C28.8651 33.1336 29.1035 33.0903 29.3202 32.9386C29.6236 32.7219 29.6669 32.3318 29.4285 32.0284C29.1902 31.725 28.8001 31.66 28.475 31.8984C28.1283 32.1585 28.1933 32.4618 28.28 32.5919L28.6917 32.2885L28.8868 32.5268L28.1717 33.0686L27.5432 32.2235L27.8249 32.0068L27.8899 32.1801Z" fill="white"/>
<path d="M25.463 33.3944L25.7881 33.2427L26.5465 34.998L26.2215 35.1497L24.9429 34.4345C24.8346 34.3695 24.7479 34.2612 24.6612 34.1745L24.6178 34.2178C24.7045 34.3045 24.8129 34.4129 24.8562 34.5212L25.3113 35.5397L24.9862 35.6914L24.2278 33.9361L24.5528 33.7844L25.8097 34.4996C25.9181 34.5646 26.0264 34.6729 26.0914 34.7596L26.1348 34.7163C26.0481 34.6296 25.9397 34.5212 25.8964 34.4129L25.463 33.3944Z" fill="white"/>
<path d="M22.3638 35.8214L21.7787 35.9515L21.6487 35.3664L22.2338 35.2363L22.3638 35.8214Z" fill="white"/>
<path d="M56.2391 18.1179C55.6151 17.9019 54.7271 18.0459 54.0791 18.0459V17.5179C54.7271 17.5179 55.6151 17.6859 56.2391 17.4459C58.1111 16.7739 58.9991 15.8379 58.9991 14.0859C58.9991 10.5099 56.3111 9.95791 52.8311 9.95791H46.2551V26.7578H49.3031V26.7818C50.7671 26.7818 52.4711 26.8058 53.1191 26.8058C57.3671 26.8058 59.863 26.1098 59.863 22.0778C59.863 19.6538 58.0391 18.7179 56.2391 18.1179ZM49.3031 16.2699V12.4059H52.0391C54.3431 12.4059 55.8311 12.4299 55.8311 14.2299C55.8311 16.0779 54.1991 16.2699 52.0391 16.2699H49.3031ZM49.3031 24.3818V19.3899H49.5431C50.3591 19.4139 51.0791 19.4139 51.4391 19.4139C54.4871 19.4139 56.7191 19.4139 56.7191 21.9818C56.7191 24.4778 54.9671 24.3818 52.1111 24.3818H49.3031Z" fill="white"/>
<path d="M61.7221 23.8538C61.7221 25.7258 63.1621 26.7578 65.8981 26.7578H67.6741V24.0218H66.1861C65.0821 24.0218 64.6741 23.7098 64.6741 22.7258V9.35791H61.7221V23.8538Z" fill="white"/>
<path d="M77.4315 25.5578C77.9115 25.0058 78.0075 24.0218 78.2235 23.3498L78.7515 23.5178C78.5355 24.1898 78.1035 25.0538 78.1035 25.7738L78.0795 26.7578H81.0315V14.7579H78.0795L78.1035 15.6699C78.1035 16.3899 78.5355 17.2299 78.7515 17.9259L78.2475 18.0939C78.0075 17.3979 77.9115 16.4139 77.4075 15.8859C76.5435 14.9499 75.2955 14.3979 73.6875 14.3979C70.1115 14.3979 67.5916 17.1099 67.5916 20.6858C67.5916 24.2618 70.1115 27.1418 73.6875 27.1418C75.2955 27.1418 76.5435 26.5418 77.4315 25.5578ZM70.5435 20.6858C70.5435 18.6459 71.8635 17.1339 73.8555 17.1339C76.0395 17.1339 77.2155 18.5739 77.2155 20.6858C77.1435 22.6538 75.8235 24.4058 73.8555 24.4058C71.8635 24.4058 70.5435 22.7018 70.5435 20.6858Z" fill="white"/>
<path d="M91.6533 25.5578C92.1333 25.0058 92.2293 24.0218 92.4453 23.3498L92.9733 23.5178C92.7573 24.1898 92.3253 25.0538 92.3253 25.7738L92.3013 26.7578H95.2533V14.7579H92.3013L92.3253 15.6699C92.3253 16.3899 92.7573 17.2299 92.9733 17.9259L92.4693 18.0939C92.2293 17.3979 92.1333 16.4139 91.6293 15.8859C90.7653 14.9499 89.5173 14.3979 87.9093 14.3979C84.3333 14.3979 81.8134 17.1099 81.8134 20.6858C81.8134 24.2618 84.3333 27.1418 87.9093 27.1418C89.5173 27.1418 90.7653 26.5418 91.6533 25.5578ZM84.7653 20.6858C84.7653 18.6459 86.0853 17.1339 88.0773 17.1339C90.2613 17.1339 91.4373 18.5739 91.4373 20.6858C91.3653 22.6538 90.0453 24.4058 88.0773 24.4058C86.0853 24.4058 84.7653 22.7018 84.7653 20.6858Z" fill="white"/>
<path d="M95.9871 20.6858C95.9871 24.5978 98.6271 27.1178 102.587 27.1418C106.427 27.1178 108.467 24.7658 108.851 22.4138H105.707C105.635 22.6778 104.771 24.3578 102.491 24.3578C100.283 24.3338 98.8911 22.7978 98.8911 20.6618C98.9151 18.5019 100.235 17.1579 102.395 17.1579C104.723 17.1579 105.563 18.8379 105.635 19.0779H108.779C108.539 16.8459 106.427 14.3979 102.467 14.3979C98.5791 14.3979 95.9871 16.7739 95.9871 20.6858Z" fill="white"/>
</svg>
