<svg width="47" height="60" viewBox="0 0 47 60" fill="none" xmlns="http://www.w3.org/2000/svg">
<path d="M0.627245 50.5252L8.0976 46.1912L7.58437 45.2788L0.114014 49.6127L0.627245 50.5252Z" fill="white"/>
<path d="M33.9302 58.0521C33.2459 58.4513 32.1624 58.6223 30.4517 58.5083C28.7979 58.3372 26.688 57.881 24.1218 57.0256C21.5557 56.1702 15.568 54.2314 10.2646 52.5206C7.58441 51.6652 5.1323 50.8669 3.30748 50.2396C2.39507 49.9544 1.65374 49.7263 1.14051 49.5553H1.08348V4.9042L7.92656 0.912409L7.3563 0L0 4.27692V50.2966C0 50.2966 18.6474 56.3413 23.7797 57.9951C28.969 59.6488 32.5616 60.048 34.4435 58.9075C35.2989 58.3942 37.4658 57.0256 39.5188 55.714C41.0014 54.8016 42.37 53.8892 43.2254 53.376L42.5981 52.4636C41.6857 53.0338 40.3171 53.8892 38.8344 54.8586C36.8385 56.2273 34.7286 57.5388 33.9302 58.0521Z" fill="white"/>
<path d="M32.1639 15.4546L24.8076 19.7315L25.3779 20.6439L32.7342 16.367L32.1639 15.4546Z" fill="white"/>
<path d="M15.9678 17.0509L16.8232 17.279C17.2223 17.393 19.7315 18.2484 22.3546 19.0468C24.6357 19.7881 25.2629 21.2708 25.434 22.0121L25.6621 22.9245L26.6886 22.6964L26.4605 21.727C26.2324 20.7575 25.377 18.9327 22.6398 18.0203C19.9596 17.1649 17.4504 16.3666 17.1083 16.2525L16.1959 16.0244L15.9678 17.0509Z" fill="white"/>
<path d="M22.0137 37.0671C22.3559 37.1812 22.698 37.2952 23.0972 37.4093C27.089 38.6638 29.7692 42.1994 29.7692 45.621V46.6474H28.6857V45.621C28.6857 42.7126 26.3476 39.5762 22.755 38.4357C22.3559 38.3217 22.0137 38.2076 21.6715 38.0936L21.5575 38.0365C20.2459 37.5803 19.1054 37.2382 18.25 36.9531C17.6798 36.782 17.2806 36.6109 16.9384 36.4969C16.7673 36.4398 16.6533 36.3828 16.5963 36.3828C16.5392 36.3828 16.5392 36.3828 16.4822 36.3258C16.4822 36.3258 16.4252 36.3258 16.3682 36.2688L16.8244 35.2993C16.8244 35.2993 16.8814 35.2993 16.9384 35.3563C16.9954 35.4134 17.1665 35.4134 17.2806 35.4704C17.5657 35.5844 18.0219 35.6985 18.5922 35.9266C19.4475 36.2117 20.531 36.5539 21.8426 37.0101L22.0137 37.0671Z" fill="white"/>
<path d="M28.7422 42.7694L35.6423 38.7776L35.1291 37.8652L28.229 41.857L28.7422 42.7694Z" fill="white"/>
<path d="M46.0207 43.7386C45.7356 42.256 45.2223 40.8874 44.538 39.5758C42.257 35.0708 37.923 31.8203 33.1899 29.9955C33.1899 29.9955 30.5097 28.969 28.6849 28.6839V26.9161C28.6849 26.9161 30.2246 27.6004 31.4792 27.9996C32.6767 28.3988 35.1288 29.2541 38.2652 28.6269C43.1124 27.6574 44.8802 23.3805 43.7397 18.8755C42.4851 13.9713 38.8925 10.2646 34.1023 8.66789C28.2287 6.78605 7.30029 0 7.30029 0V46.0197C7.30029 46.0197 7.69947 46.1337 8.38378 46.3618C8.44081 46.3618 8.49783 46.4189 8.61188 46.4189C9.29619 46.647 10.2086 46.9321 11.4061 47.3313C11.7483 47.4453 12.1475 47.6164 12.4896 47.6734C12.5466 47.6734 12.5467 47.6734 12.6037 47.7304C13.1739 47.9015 13.7442 48.0726 14.3715 48.3007C14.5425 48.3577 14.6566 48.4147 14.8277 48.4718C15.1698 48.5858 16.1963 48.871 16.3103 48.928C18.4773 49.6123 20.7583 50.4106 22.9253 51.095H22.9823C23.2675 51.209 23.6096 51.3231 23.8947 51.3801H23.9518C25.0923 51.7222 26.1758 52.1214 27.2593 52.4065C28.1717 52.6917 29.0271 52.9768 29.7684 53.2619C29.8824 53.319 30.0535 53.376 30.1105 53.376C30.3957 53.49 30.6808 53.6041 30.9659 53.6611C31.137 53.7181 31.2511 53.7752 31.3651 53.7752C31.5362 53.8322 31.6502 53.8892 31.7643 53.8892C32.0494 54.0033 32.2205 54.0603 32.5056 54.1173C34.2164 54.5735 35.9842 54.9157 37.752 54.9157H37.809C41.6297 54.9157 45.5075 53.1479 46.1347 49.042C46.4199 47.2742 46.3628 45.4494 46.0207 43.7386ZM17.0517 9.80841C17.0517 9.80841 25.9477 12.6597 28.913 13.6861C30.3957 14.1424 31.5362 14.9977 32.3345 16.0242C33.304 17.2788 33.8172 18.8185 33.8172 20.4152C33.8172 22.9813 30.9659 23.5516 27.6584 22.4681C27.2022 22.297 26.632 22.1259 26.0047 21.9549L22.4121 20.8143C20.5873 20.1871 18.8765 19.6168 17.1087 18.9895V9.80841H17.0517ZM36.2693 42.8262C35.9842 45.3924 35.1288 47.4453 29.1981 45.6775C29.1411 45.6775 29.0841 45.6775 29.0271 45.6205C28.856 45.5635 28.6849 45.5064 28.5138 45.4494C28.2857 45.3924 28.1146 45.3354 27.8865 45.2213C27.4874 45.1073 27.0882 44.9362 26.689 44.8792C25.8906 44.594 25.1493 44.423 24.465 44.1378C24.1228 44.0238 23.7807 43.9097 23.4385 43.8527L21.9559 43.3965C21.6707 43.2824 21.3856 43.2254 21.1005 43.1114L16.9946 41.7998V29.1401C16.9946 29.1401 25.9477 32.1624 30.6808 34.1013C33.0759 35.0708 34.5585 36.6675 35.3569 38.2642C36.2123 39.8609 36.4404 41.5147 36.2693 42.8262Z" fill="white"/>
</svg>
