<svg width="151" height="51" viewBox="0 0 151 51" fill="none" xmlns="http://www.w3.org/2000/svg">
<path d="M14.8756 35.9892L18.8045 33.7098L18.5345 33.23L14.6057 35.5093L14.8756 35.9892Z" fill="white"/>
<path d="M32.3903 39.9479C32.0305 40.1578 31.4606 40.2478 30.5609 40.1878C29.6911 40.0979 28.5815 39.8579 27.2319 39.4081C25.8823 38.9582 22.7332 37.9385 19.944 37.0388C18.5345 36.5889 17.2448 36.169 16.2851 35.8391C15.8053 35.6892 15.4154 35.5692 15.1455 35.4792H15.1155V11.9962L18.7144 9.89685L18.4145 9.41699L14.5457 11.6663V35.8691C14.5457 35.8691 24.3527 39.0482 27.0519 39.9179C29.7811 40.7877 31.6706 40.9976 32.6603 40.3978C33.1101 40.1279 34.2498 39.4081 35.3295 38.7183C36.1092 38.2384 36.829 37.7586 37.2789 37.4886L36.949 37.0088C36.4691 37.3087 35.7493 37.7586 34.9696 38.2684C33.9199 38.9882 32.8102 39.678 32.3903 39.9479Z" fill="white"/>
<path d="M31.4614 17.5449L27.5925 19.7943L27.8924 20.2741L31.7613 18.0248L31.4614 17.5449Z" fill="white"/>
<path d="M22.9434 18.3846L23.3932 18.5045C23.6032 18.5645 24.9228 19.0144 26.3024 19.4343C27.502 19.8241 27.8319 20.6039 27.9219 20.9938L28.0418 21.4736L28.5817 21.3537L28.4617 20.8438C28.3418 20.334 27.8919 19.3743 26.4523 18.8944C25.0427 18.4445 23.7231 18.0247 23.5432 17.9647L23.0633 17.8447L22.9434 18.3846Z" fill="white"/>
<path d="M26.1232 28.9117C26.3031 28.9716 26.4831 29.0316 26.693 29.0916C28.7924 29.7514 30.202 31.6109 30.202 33.4103V33.9502H29.6321V33.4103C29.6321 31.8808 28.4025 30.2313 26.5131 29.6314C26.3031 29.5715 26.1232 29.5115 25.9432 29.4515L25.8832 29.4215C25.1934 29.1816 24.5936 29.0016 24.1438 28.8517C23.8438 28.7617 23.6339 28.6717 23.454 28.6117C23.364 28.5818 23.304 28.5518 23.274 28.5518C23.244 28.5518 23.244 28.5518 23.214 28.5218C23.214 28.5218 23.184 28.5218 23.1541 28.4918L23.394 27.9819C23.394 27.9819 23.424 27.9819 23.454 28.0119C23.484 28.0419 23.5739 28.0419 23.6339 28.0719C23.7839 28.1319 24.0238 28.1919 24.3237 28.3118C24.7736 28.4618 25.3434 28.6417 26.0332 28.8817L26.1232 28.9117Z" fill="white"/>
<path d="M29.6618 31.9103L33.2907 29.8109L33.0208 29.3311L29.3918 31.4304L29.6618 31.9103Z" fill="white"/>
<path d="M38.749 32.4201C38.599 31.6404 38.3291 30.9206 37.9692 30.2308C36.7695 27.8615 34.4902 26.152 32.001 25.1923C32.001 25.1923 30.5914 24.6525 29.6317 24.5025V23.5728C29.6317 23.5728 30.4414 23.9327 31.1012 24.1426C31.731 24.3525 33.0207 24.8024 34.6702 24.4725C37.2194 23.9627 38.1491 21.7133 37.5493 19.344C36.8895 16.7648 35.0001 14.8154 32.4808 13.9756C29.3917 12.9859 18.385 9.41699 18.385 9.41699V33.6198C18.385 33.6198 18.5949 33.6798 18.9548 33.7997C18.9848 33.7997 19.0148 33.8297 19.0748 33.8297C19.4347 33.9497 19.9146 34.0996 20.5444 34.3096C20.7243 34.3696 20.9343 34.4595 21.1142 34.4895C21.1442 34.4895 21.1442 34.4895 21.1742 34.5195C21.4741 34.6095 21.774 34.6995 22.1039 34.8194C22.1939 34.8494 22.2539 34.8794 22.3438 34.9094C22.5238 34.9694 23.0636 35.1193 23.1236 35.1493C24.2633 35.5092 25.4629 35.9291 26.6026 36.289H26.6326C26.7825 36.349 26.9625 36.409 27.1124 36.439H27.1424C27.7422 36.6189 28.3121 36.8288 28.8819 36.9788C29.3617 37.1287 29.8116 37.2787 30.2015 37.4287C30.2615 37.4586 30.3514 37.4886 30.3814 37.4886C30.5314 37.5486 30.6814 37.6086 30.8313 37.6386C30.9213 37.6686 30.9813 37.6986 31.0412 37.6986C31.1312 37.7286 31.1912 37.7586 31.2512 37.7586C31.4011 37.8185 31.4911 37.8485 31.6411 37.8785C32.5408 38.1185 33.4705 38.2984 34.4002 38.2984H34.4302C36.4396 38.2984 38.479 37.3687 38.8089 35.2093C38.9589 34.2796 38.9289 33.3199 38.749 32.4201ZM23.5135 14.5755C23.5135 14.5755 28.1921 16.075 29.7516 16.6148C30.5314 16.8548 31.1312 17.3046 31.5511 17.8445C32.0609 18.5043 32.3309 19.314 32.3309 20.1538C32.3309 21.5034 30.8313 21.8033 29.0918 21.2335C28.8519 21.1435 28.552 21.0535 28.2221 20.9636L26.3326 20.3637C25.3729 20.0338 24.4732 19.7339 23.5435 19.404V14.5755H23.5135ZM33.6205 31.9403C33.4705 33.2899 33.0207 34.3696 29.9016 33.4398C29.8716 33.4398 29.8416 33.4398 29.8116 33.4099C29.7216 33.3799 29.6317 33.3499 29.5417 33.3199C29.4217 33.2899 29.3318 33.2599 29.2118 33.1999C29.0019 33.1399 28.7919 33.05 28.582 33.02C28.1621 32.87 27.7722 32.78 27.4123 32.6301C27.2324 32.5701 27.0524 32.5101 26.8725 32.4801L26.0927 32.2402C25.9428 32.1802 25.7928 32.1502 25.6429 32.0902L23.4835 31.4004V24.7424C23.4835 24.7424 28.1921 26.332 30.6814 27.3517C31.941 27.8615 32.7207 28.7013 33.1406 29.541C33.5905 30.3808 33.7104 31.2505 33.6205 31.9403Z" fill="white"/>
<path d="M19.5841 49.665C19.7041 49.9049 19.944 50.0549 20.3039 50.1448C20.5439 50.2048 20.8138 50.1448 20.8438 49.9649C20.9337 49.575 19.1943 49.2751 19.4042 48.3454C19.5242 47.8655 20.094 47.6556 20.7838 47.8055C21.2936 47.9255 21.5636 48.1654 21.7435 48.5853L21.3236 48.7352C21.2037 48.4653 20.9937 48.3154 20.6038 48.2254C20.2439 48.1654 20.004 48.2254 19.974 48.4053C19.8541 48.9152 21.5336 49.1851 21.3536 49.9949C21.2636 50.4447 20.6938 50.5947 20.094 50.4747C19.6441 50.3848 19.3442 50.1148 19.1343 49.7849L19.5841 49.665Z" fill="white"/>
<path d="M16.4352 46.4861L15.5355 48.4955L16.1953 48.7954L16.0153 49.2153L14.2458 48.4355L14.4258 48.0156L15.0856 48.3156L15.9853 46.3062L16.4352 46.4861Z" fill="white"/>
<path d="M11.0369 44.0866C11.0969 43.9366 11.2769 43.4268 11.2769 43.4268L11.6968 43.7267C11.5768 44.0566 11.4868 44.2965 11.4568 44.3265C11.3069 44.7464 11.5468 44.8663 11.6668 44.9563C11.6968 44.9863 11.7267 44.9863 11.7267 45.0163C11.7867 45.0763 11.9667 45.1962 11.9967 45.1962L12.5965 44.3565L12.9864 44.6264L11.4268 46.7858L10.6471 46.2159C10.1672 45.856 9.8373 45.4662 10.1972 44.9863C10.4071 44.7164 10.6171 44.6864 10.887 44.7464C11.0369 44.7764 11.1569 44.8963 11.2769 44.9863L11.3369 44.9263C11.2169 44.8363 11.0369 44.7764 11.007 44.6264C10.917 44.4764 10.947 44.2965 11.0369 44.0866ZM11.7267 45.5261L11.3669 45.2862C11.0969 45.1063 10.767 45.0163 10.5871 45.2862C10.3771 45.5561 10.5571 45.7961 10.857 46.006L11.2169 46.2459L11.7267 45.5261Z" fill="white"/>
<path d="M6.77782 42.8573L6.38794 42.4374L7.67756 39.8882L8.03745 40.2781L7.58758 41.1778L8.15741 41.8076L9.05715 41.4177L9.41704 41.8076L6.77782 42.8573ZM7.04774 42.1675C7.01775 42.2575 6.92778 42.3175 6.8678 42.3774L6.92778 42.4374C6.98776 42.3774 7.04774 42.2875 7.13772 42.2575L7.8575 42.0175L7.34765 41.4777L7.04774 42.1675Z" fill="white"/>
<path d="M5.93896 37.3088L4.04952 38.4184L4.40941 39.0182L4.01953 39.2582L3.05981 37.6087L3.4497 37.3687L3.80959 37.9686L5.69903 36.8589L5.93896 37.3088Z" fill="white"/>
<path d="M1.64963 34.6096L1.0498 32.8402L1.49967 32.6902L1.94954 33.9798L2.51937 33.7699L2.09949 32.5702L2.54936 32.4203L2.96923 33.6199L3.59905 33.41L3.14918 32.0904L3.59905 31.9404L4.19887 33.7099L1.64963 34.6096Z" fill="white"/>
<path d="M2.48891 27.2623C2.33896 27.2923 2.12902 27.2323 1.97907 27.2023V27.2923C2.12902 27.3223 2.33896 27.2923 2.45892 27.3823C2.60888 27.5022 2.81882 27.7122 2.84881 28.102C2.93878 28.8818 2.39894 29.5416 1.61917 29.6316C0.839405 29.7216 0.179602 29.1817 0.0896284 28.372C0.0296462 27.7721 0.239584 27.2923 0.68945 27.0524L0.869397 27.5322C0.629468 27.6822 0.539495 27.9821 0.569486 28.342C0.629468 28.8518 1.04934 29.1817 1.58918 29.1217C2.12902 29.0618 2.45892 28.6419 2.39894 28.072C2.33896 27.4722 1.91908 27.3523 1.70915 27.3523L1.79912 28.072L1.37924 28.132L1.22929 26.9024L2.66886 26.7524L2.72884 27.2323L2.48891 27.2623Z" fill="white"/>
<path d="M0.959715 22.9135C1.07968 22.8535 1.22963 22.8535 1.37959 22.8835V22.7935C1.25963 22.7935 1.07968 22.7635 0.989706 22.6736L0.209938 22.0437L0.26992 21.5039L1.55954 22.5836L2.78917 22.7035L2.72919 23.2134L1.49955 23.0934L0 23.9032L0.0599824 23.3634L0.959715 22.9135Z" fill="white"/>
<path d="M3.14893 15.116L3.50882 14.3662L4.2586 14.7261L3.8987 15.4759L3.14893 15.116Z" fill="white"/>
<path d="M6.65796 8.2781L7.94757 6.9585L8.27748 7.2884L7.31776 8.2781L7.76763 8.69798L8.66736 7.76826L8.99726 8.09816L8.09753 9.02788L8.57739 9.47775L9.5371 8.48804L9.867 8.81794L8.5474 10.1675L6.65796 8.2781Z" fill="white"/>
<path d="M12.2364 6.89765L11.7865 7.19756V5.51806L10.3469 4.94823L10.8268 4.61833L11.6665 5.00821C11.7565 5.0682 11.8465 5.15817 11.9065 5.24814L11.9664 5.21815C11.9065 5.12818 11.8165 5.00821 11.8165 4.88825V3.92854L12.2963 3.59863V5.18816L13.8259 5.78798L13.346 6.11788L12.3563 5.75799C12.2664 5.728 12.1764 5.60804 12.1164 5.51806L12.0564 5.54805C12.1164 5.63803 12.2064 5.75799 12.2064 5.84796L12.2364 6.89765Z" fill="white"/>
<path d="M16.1652 3.41884L16.5851 4.43853L16.1352 4.61848L15.1455 2.15921L16.0752 1.79932C16.6151 1.58938 17.0949 1.5294 17.3049 2.12922C17.5448 2.72904 17.1549 3.02895 16.6151 3.26888C16.4951 3.29887 16.3451 3.35886 16.1652 3.41884ZM16.4051 2.879C16.705 2.75903 16.975 2.60908 16.855 2.30917C16.735 2.00926 16.4651 2.09923 16.1352 2.2192L15.7453 2.36915L16.0152 3.02895L16.4051 2.879Z" fill="white"/>
<path d="M20.0945 0.569648L21.9239 0.239746L22.0139 0.689612L20.6643 0.929541L20.7843 1.52936L22.0439 1.28943L22.1339 1.7393L20.8742 1.97923L20.9942 2.63903L22.3738 2.3991L22.4638 2.84897L20.6043 3.17887L20.0945 0.569648Z" fill="white"/>
<path d="M26.9919 2.0094C27.0219 2.15936 27.1719 2.66921 27.1719 2.66921H26.662C26.5721 2.3393 26.5421 2.06938 26.5121 2.03939C26.3921 1.61952 26.1222 1.64951 26.0022 1.64951C25.9722 1.64951 25.9422 1.64951 25.9123 1.64951C25.8223 1.64951 25.6123 1.64951 25.5824 1.64951L25.5524 2.66921H25.0725L25.1325 0L26.0922 0.0299912C26.692 0.0299912 27.1719 0.179947 27.1719 0.809759C27.1719 1.13966 26.9919 1.28962 26.752 1.40958C26.632 1.46956 26.4521 1.43957 26.3021 1.43957V1.52954C26.4521 1.52954 26.632 1.49955 26.752 1.58953C26.872 1.61952 26.932 1.76947 26.9919 2.0094ZM25.5824 1.19964H26.0022C26.3321 1.19964 26.632 1.07968 26.632 0.749777C26.632 0.419875 26.3621 0.329902 26.0022 0.299911H25.5824V1.19964Z" fill="white"/>
<path d="M30.5308 0.47998L31.0107 0.569954L30.4708 3.17918L29.991 3.0892L30.5308 0.47998Z" fill="white"/>
<path d="M34.2204 1.49951L35.9299 2.18931L35.75 2.60918L34.4603 2.09933L34.2204 2.66916L35.4201 3.14902L35.2401 3.5689L34.0405 3.08904L33.8005 3.71885L35.1501 4.25869L34.9702 4.67857L33.2307 3.98877L34.2204 1.49951Z" fill="white"/>
<path d="M37.7585 6.2085L37.3386 5.93858L38.8382 3.71924L39.258 3.98916L39.348 5.99856C39.348 6.14851 39.288 6.35845 39.258 6.5384L39.348 6.56839C39.378 6.41843 39.438 6.2085 39.528 6.05854L40.3977 4.76893L40.8176 5.03884L39.318 7.25818L38.8982 6.98826L38.8082 4.97886C38.8082 4.79892 38.8682 4.61897 38.8982 4.43902L38.8082 4.40903C38.7782 4.55899 38.7182 4.76893 38.6282 4.91888L37.7585 6.2085Z" fill="white"/>
<path d="M42.3174 8.06846C42.8872 7.52862 43.727 7.55861 44.2668 8.12844C44.8067 8.72826 44.7467 9.29809 44.4168 9.68798L44.0869 9.32808C44.2068 9.11815 44.2968 8.84823 43.9369 8.45834C43.607 8.09845 43.0972 8.03847 42.6773 8.42835C42.2574 8.81824 42.2574 9.32808 42.6173 9.68798C43.0072 10.1079 43.2771 10.0479 43.4871 9.92791L43.817 10.2878C43.3371 10.6477 42.7973 10.5877 42.2574 10.0179C41.7176 9.44805 41.7476 8.6083 42.3174 8.06846Z" fill="white"/>
<path d="M47.0563 11.7866L48.016 13.3761L47.6261 13.6161L46.9363 12.4464L46.4264 12.7463L47.0862 13.856L46.6964 14.0959L46.0366 12.9863L45.4667 13.3162L46.1865 14.5158L45.7966 14.7557L44.8369 13.1362L47.0563 11.7866Z" fill="white"/>
<path d="M49.6049 20.2139L49.7849 21.0236L48.9751 21.2036L48.7952 20.3938L49.6049 20.2139Z" fill="white"/>
<path d="M48.2553 27.892L48.3153 27.4722L51.0145 27.8321L50.8646 28.9417C50.7746 29.6915 50.1448 30.1714 49.365 30.0814C48.5852 29.9614 48.0454 29.3016 48.1654 28.5518L48.2553 27.892ZM48.6452 28.5219C48.5852 29.0617 48.9451 29.5116 49.425 29.5715C49.9049 29.6315 50.3247 29.3016 50.4147 28.7918L50.4747 28.2519L48.7052 28.012L48.6452 28.5219Z" fill="white"/>
<path d="M49.8153 33.41L49.1855 35.1495L48.7356 34.9995L49.2155 33.7099L48.6456 33.5L48.1958 34.6996L47.7459 34.5496L48.1958 33.35L47.566 33.1101L47.0861 34.4297L46.6362 34.2797L47.266 32.5103L49.8153 33.41Z" fill="white"/>
<path d="M46.2462 39.2282C46.5161 39.1682 46.756 39.0182 46.936 38.7183C47.056 38.5084 47.1159 38.2385 46.966 38.1485C46.6361 37.9386 45.7663 39.4681 44.9566 38.9583C44.5367 38.6883 44.5667 38.0885 44.9266 37.4887C45.1965 37.0688 45.5264 36.8889 46.0063 36.8589V37.3088C45.7064 37.3387 45.4964 37.4587 45.2865 37.7886C45.1065 38.0885 45.1065 38.3584 45.2565 38.4484C45.6764 38.7183 46.5161 37.2488 47.2359 37.6986C47.6258 37.9386 47.5658 38.5084 47.2359 39.0482C46.996 39.4381 46.6661 39.6481 46.2762 39.708L46.2462 39.2282Z" fill="white"/>
<path d="M44.5671 42.4977L44.2372 42.8576L42.2578 41.0581L42.5877 40.6982L44.5671 42.4977Z" fill="white"/>
<path d="M38.5988 44.5366C38.6887 44.6566 38.7487 44.8665 38.8087 44.9865L38.8987 44.9565C38.8387 44.8065 38.7187 44.6266 38.7487 44.4766C38.7787 44.2667 38.8687 43.9968 39.1686 43.7568C39.7984 43.277 40.6381 43.3969 41.118 44.0268C41.5979 44.6566 41.4779 45.4963 40.8181 45.9762C40.3382 46.3361 39.7984 46.3961 39.3785 46.1261L39.7084 45.7363C39.9484 45.8562 40.2783 45.7962 40.5782 45.5863C40.998 45.2864 41.058 44.7465 40.7281 44.3267C40.3982 43.9068 39.8584 43.8168 39.4085 44.1467C38.9287 44.5066 39.0186 44.9265 39.1386 45.1064L39.7084 44.6866L39.9783 45.0165L38.9886 45.7662L38.1189 44.5966L38.5088 44.2967L38.5988 44.5366Z" fill="white"/>
<path d="M35.2393 46.2163L35.6891 46.0063L36.7388 48.4356L36.289 48.6456L34.5195 47.6559C34.3695 47.5659 34.2496 47.4159 34.1296 47.296L34.0696 47.3559C34.1896 47.4759 34.3395 47.6259 34.3995 47.7758L35.0293 49.1854L34.5795 49.3953L33.5298 46.9661L33.9797 46.7561L35.7191 47.7458C35.8691 47.8358 36.019 47.9858 36.109 48.1057L36.169 48.0457C36.049 47.9258 35.8991 47.7758 35.8391 47.6259L35.2393 46.2163Z" fill="white"/>
<path d="M30.9509 49.5754L30.1411 49.7553L29.9612 48.9456L30.7709 48.7656L30.9509 49.5754Z" fill="white"/>
<path d="M77.8323 25.0746C76.9687 24.7757 75.7398 24.975 74.843 24.975V24.2442C75.7398 24.2442 76.9687 24.4767 77.8323 24.1446C80.4231 23.2146 81.652 21.9192 81.652 19.4945C81.652 14.5455 77.9319 13.7815 73.1158 13.7815H64.0149V37.032H68.2332V37.0652C70.2593 37.0652 72.6176 37.0984 73.5144 37.0984C79.3934 37.0984 82.8478 36.1352 82.8478 30.5551C82.8478 27.2004 80.3234 25.905 77.8323 25.0746ZM68.2332 22.5171V17.1695H72.0197C75.2083 17.1695 77.2676 17.2027 77.2676 19.6938C77.2676 22.2513 75.009 22.5171 72.0197 22.5171H68.2332ZM68.2332 33.7437V26.835H68.5653C69.6946 26.8682 70.6911 26.8682 71.1893 26.8682C75.4076 26.8682 78.4966 26.8682 78.4966 30.4222C78.4966 33.8766 76.0719 33.7437 72.1193 33.7437H68.2332Z" fill="white"/>
<path d="M85.4206 33.013C85.4206 35.6037 87.4135 37.032 91.2 37.032H93.6579V33.2455H91.5986C90.0707 33.2455 89.506 32.8137 89.506 31.4519V12.9512H85.4206V33.013Z" fill="white"/>
<path d="M107.162 35.3712C107.826 34.6073 107.959 33.2455 108.258 32.3155L108.989 32.548C108.69 33.478 108.092 34.6737 108.092 35.6702L108.059 37.032H112.144V20.4245H108.059L108.092 21.6867C108.092 22.6831 108.69 23.8457 108.989 24.8089L108.291 25.0414C107.959 24.0782 107.826 22.7164 107.129 21.9856C105.933 20.6902 104.206 19.9263 101.98 19.9263C97.0313 19.9263 93.5437 23.6796 93.5437 28.6286C93.5437 33.5776 97.0313 37.5634 101.98 37.5634C104.206 37.5634 105.933 36.7331 107.162 35.3712ZM97.6292 28.6286C97.6292 25.8053 99.456 23.7128 102.213 23.7128C105.235 23.7128 106.863 25.7057 106.863 28.6286C106.763 31.3522 104.936 33.7769 102.213 33.7769C99.456 33.7769 97.6292 31.4187 97.6292 28.6286Z" fill="white"/>
<path d="M126.844 35.3712C127.509 34.6073 127.641 33.2455 127.94 32.3155L128.671 32.548C128.372 33.478 127.774 34.6737 127.774 35.6702L127.741 37.032H131.827V20.4245H127.741L127.774 21.6867C127.774 22.6831 128.372 23.8457 128.671 24.8089L127.974 25.0414C127.641 24.0782 127.509 22.7164 126.811 21.9856C125.615 20.6902 123.888 19.9263 121.663 19.9263C116.714 19.9263 113.226 23.6796 113.226 28.6286C113.226 33.5776 116.714 37.5634 121.663 37.5634C123.888 37.5634 125.615 36.7331 126.844 35.3712ZM117.312 28.6286C117.312 25.8053 119.138 23.7128 121.895 23.7128C124.918 23.7128 126.545 25.7057 126.545 28.6286C126.446 31.3522 124.619 33.7769 121.895 33.7769C119.138 33.7769 117.312 31.4187 117.312 28.6286Z" fill="white"/>
<path d="M132.842 28.6286C132.842 34.0426 136.496 37.5302 141.976 37.5634C147.291 37.5302 150.114 34.2751 150.645 31.0201H146.294C146.195 31.3854 144.999 33.7105 141.843 33.7105C138.788 33.6773 136.861 31.5515 136.861 28.5954C136.894 25.6061 138.721 23.746 141.711 23.746C144.932 23.746 146.095 26.0711 146.195 26.4032H150.546C150.214 23.3142 147.291 19.9263 141.81 19.9263C136.429 19.9263 132.842 23.2146 132.842 28.6286Z" fill="white"/>
</svg>
