<svg width="34" height="43" viewBox="0 0 34 43" fill="none" xmlns="http://www.w3.org/2000/svg">
<path d="M0.451495 36.348L5.82568 33.2301L5.45646 32.5737L0.0822754 35.6916L0.451495 36.348Z" fill="#000"/>
<path d="M24.4095 41.7627C23.9172 42.0499 23.1377 42.173 21.907 42.0909C20.7173 41.9679 19.1994 41.6397 17.3533 41.0243C15.5072 40.4089 11.1996 39.0141 7.38437 37.7834C5.45623 37.168 3.69218 36.5937 2.37941 36.1424C1.72302 35.9373 1.1897 35.7732 0.820486 35.6501H0.779459V3.52809L5.70237 0.656388L5.29213 0L0 3.07682V36.1834C0 36.1834 13.4149 40.532 17.1071 41.7217C20.8403 42.9114 23.4249 43.1986 24.7787 42.3781C25.394 42.0089 26.953 41.0243 28.4298 40.0807C29.4965 39.4243 30.4811 38.768 31.0964 38.3987L30.6451 37.7423C29.9888 38.1526 29.0042 38.768 27.9375 39.4654C26.5017 40.45 24.9838 41.3935 24.4095 41.7627Z" fill="#000"/>
<path d="M23.1391 11.1182L17.8469 14.195L18.2572 14.8514L23.5493 11.7746L23.1391 11.1182Z" fill="#000"/>
<path d="M11.4873 12.2668L12.1027 12.4309C12.3898 12.5129 14.1949 13.1283 16.082 13.7026C17.723 14.2359 18.1743 15.3026 18.2973 15.8359L18.4614 16.4923L19.1999 16.3282L19.0358 15.6308C18.8717 14.9333 18.2563 13.6206 16.2871 12.9642C14.359 12.3488 12.5539 11.7745 12.3078 11.6924L11.6514 11.5283L11.4873 12.2668Z" fill="#000"/>
<path d="M15.837 26.6663C16.0832 26.7483 16.3293 26.8304 16.6165 26.9124C19.4882 27.815 21.4163 30.3585 21.4163 32.8199V33.5584H20.6369V32.8199C20.6369 30.7277 18.9549 28.4714 16.3704 27.6509C16.0832 27.5688 15.837 27.4868 15.5909 27.4047L15.5088 27.3637C14.5653 27.0355 13.7448 26.7894 13.1294 26.5842C12.7192 26.4612 12.432 26.3381 12.1859 26.256C12.0628 26.215 11.9808 26.174 11.9397 26.174C11.8987 26.174 11.8987 26.174 11.8577 26.133C11.8577 26.133 11.8167 26.133 11.7756 26.0919L12.1038 25.3945C12.1038 25.3945 12.1449 25.3945 12.1859 25.4356C12.2269 25.4766 12.35 25.4766 12.432 25.5176C12.6371 25.5997 12.9653 25.6817 13.3756 25.8458C13.9909 26.0509 14.7704 26.2971 15.714 26.6253L15.837 26.6663Z" fill="#000"/>
<path d="M20.6771 30.7683L25.641 27.8966L25.2718 27.2402L20.3079 30.1119L20.6771 30.7683Z" fill="#000"/>
<path d="M33.1074 31.4656C32.9023 30.399 32.5331 29.4144 32.0408 28.4709C30.3998 25.2299 27.282 22.8916 23.877 21.5788C23.877 21.5788 21.9488 20.8403 20.6361 20.6352V19.3635C20.6361 19.3635 21.7437 19.8558 22.6463 20.1429C23.5078 20.4301 25.2718 21.0455 27.5281 20.5942C31.0152 19.8968 32.287 16.82 31.4665 13.579C30.5639 10.051 27.9794 7.38437 24.5334 6.23569C20.3079 4.88189 5.25195 0 5.25195 0V33.1066C5.25195 33.1066 5.53912 33.1887 6.03142 33.3528C6.07244 33.3528 6.11346 33.3938 6.19551 33.3938C6.6878 33.5579 7.34419 33.763 8.2057 34.0502C8.45185 34.1322 8.73902 34.2553 8.98516 34.2963C9.02619 34.2963 9.02619 34.2963 9.06721 34.3373C9.47746 34.4604 9.8877 34.5835 10.339 34.7476C10.462 34.7886 10.5441 34.8296 10.6672 34.8707C10.9133 34.9527 11.6517 35.1578 11.7338 35.1988C13.2927 35.6911 14.9337 36.2655 16.4926 36.7578H16.5336C16.7388 36.8398 16.9849 36.9219 17.19 36.9629H17.231C18.0515 37.209 18.831 37.4962 19.6105 37.7013C20.2668 37.9065 20.8822 38.1116 21.4155 38.3167C21.4976 38.3577 21.6206 38.3987 21.6617 38.3987C21.8668 38.4808 22.0719 38.5628 22.277 38.6039C22.4001 38.6449 22.4822 38.6859 22.5642 38.6859C22.6873 38.7269 22.7693 38.768 22.8514 38.768C23.0565 38.85 23.1796 38.891 23.3847 38.9321C24.6154 39.2603 25.8872 39.5064 27.1589 39.5064H27.2C29.9486 39.5064 32.7382 38.2346 33.1895 35.2809C33.3946 34.0091 33.3536 32.6964 33.1074 31.4656ZM12.2671 7.05618C12.2671 7.05618 18.6669 9.10739 20.8002 9.84583C21.8668 10.174 22.6873 10.7894 23.2616 11.5278C23.959 12.4304 24.3282 13.538 24.3282 14.6867C24.3282 16.5328 22.277 16.943 19.8976 16.1636C19.5694 16.0405 19.1592 15.9174 18.7079 15.7944L16.1234 14.9739C14.8106 14.5226 13.5799 14.1124 12.3081 13.6611V7.05618H12.2671ZM26.0923 30.8092C25.8872 32.6553 25.2718 34.1322 21.0053 32.8605C20.9643 32.8605 20.9232 32.8605 20.8822 32.8194C20.7591 32.7784 20.6361 32.7374 20.513 32.6964C20.3489 32.6553 20.2258 32.6143 20.0617 32.5323C19.7746 32.4502 19.4874 32.3271 19.2002 32.2861C18.6259 32.081 18.0926 31.9579 17.6003 31.7528C17.3541 31.6708 17.108 31.5887 16.8618 31.5477L15.7952 31.2195C15.5901 31.1374 15.385 31.0964 15.1798 31.0144L12.2261 30.0708V20.9634C12.2261 20.9634 18.6669 23.1377 22.0719 24.5325C23.7949 25.2299 24.8616 26.3786 25.4359 27.5273C26.0513 28.676 26.2154 29.8657 26.0923 30.8092Z" fill="#000"/>
</svg>
