<svg width="145" height="145" viewBox="0 0 145 145" fill="none" xmlns="http://www.w3.org/2000/svg">
<circle cx="72.5" cy="72.5" r="72.5" fill="black"/>
<path d="M41.3769 102.691L52.3927 96.3005L51.6359 94.9551L40.6201 101.346L41.3769 102.691Z" fill="white"/>
<path d="M90.4837 113.791C89.4746 114.38 87.8769 114.632 85.3542 114.464C82.9156 114.212 79.8043 113.539 76.0202 112.277C72.2362 111.016 63.4067 108.157 55.5864 105.634C51.6342 104.373 48.0183 103.196 45.3274 102.271C43.982 101.85 42.8888 101.514 42.132 101.262H42.0479V35.4192L52.1387 29.5329L51.2978 28.1875L40.4502 34.4942V102.355C40.4502 102.355 67.9476 111.268 75.5157 113.707C83.1679 116.146 88.4655 116.734 91.2405 115.052C92.5019 114.296 95.6973 112.277 98.7245 110.343C100.911 108.998 102.929 107.652 104.19 106.896L103.265 105.55C101.92 106.391 99.9018 107.652 97.7154 109.082C94.7723 111.1 91.661 113.034 90.4837 113.791Z" fill="white"/>
<path d="M87.8788 50.9766L77.0312 57.2833L77.8721 58.6287L88.7197 52.322L87.8788 50.9766Z" fill="white"/>
<path d="M63.9961 53.331L65.2574 53.6674C65.8461 53.8355 69.546 55.0969 73.4142 56.2741C76.7778 57.3673 77.7028 59.5537 77.955 60.6468L78.2914 61.9923L79.805 61.6559L79.4686 60.2264C79.1323 58.7968 77.8709 56.106 73.8346 54.7605C69.8824 53.4992 66.1824 52.3219 65.6779 52.1537L64.3324 51.8174L63.9961 53.331Z" fill="white"/>
<path d="M72.9118 82.849C73.4164 83.0172 73.9209 83.1853 74.5095 83.3535C80.3958 85.2035 84.348 90.4171 84.348 95.4625V96.9761H82.7503V95.4625C82.7503 91.1739 79.3027 86.5489 74.005 84.8671C73.4164 84.699 72.9118 84.5308 72.4073 84.3626L72.2391 84.2785C70.305 83.6058 68.6232 83.1012 67.3619 82.6808C66.521 82.4285 65.9324 82.1763 65.4278 82.0081C65.1755 81.924 65.0074 81.8399 64.9233 81.8399C64.8392 81.8399 64.8392 81.8399 64.7551 81.7558C64.7551 81.7558 64.671 81.7558 64.5869 81.6717L65.2596 80.2422C65.2596 80.2422 65.3437 80.2422 65.4278 80.3263C65.5119 80.4104 65.7642 80.4104 65.9324 80.4945C66.3528 80.6626 67.0255 80.8308 67.8664 81.1672C69.1278 81.5876 70.7255 82.0922 72.6595 82.7649L72.9118 82.849Z" fill="white"/>
<path d="M82.8335 91.2561L93.0084 85.3699L92.2515 84.0244L82.0767 89.9107L82.8335 91.2561Z" fill="white"/>
<path d="M108.313 92.6845C107.893 90.4981 107.136 88.48 106.127 86.5459C102.763 79.9028 96.3726 75.1097 89.3931 72.4188C89.3931 72.4188 85.4409 70.9052 82.75 70.4847V67.8779C82.75 67.8779 85.0205 68.887 86.8704 69.4757C88.6363 70.0643 92.2522 71.3256 96.8771 70.4006C104.025 68.9711 106.632 62.6644 104.95 56.0213C103.1 48.7895 97.8021 43.3237 90.7386 40.9692C82.0773 38.1942 51.2163 28.1875 51.2163 28.1875V96.0481C51.2163 96.0481 51.8049 96.2163 52.814 96.5526C52.8981 96.5526 52.9822 96.6367 53.1504 96.6367C54.1595 96.9731 55.5049 97.3935 57.2708 97.9821C57.7753 98.1503 58.364 98.4026 58.8685 98.4867C58.9526 98.4867 58.9526 98.4867 59.0367 98.5708C59.8776 98.823 60.7185 99.0753 61.6435 99.4117C61.8957 99.4958 62.0639 99.5798 62.3162 99.6639C62.8207 99.8321 64.3343 100.253 64.5025 100.337C67.6979 101.346 71.0615 102.523 74.2569 103.532H74.341C74.7615 103.7 75.266 103.868 75.6865 103.953H75.7706C77.4524 104.457 79.0501 105.046 80.6478 105.466C81.9932 105.887 83.2546 106.307 84.3477 106.727C84.5159 106.812 84.7682 106.896 84.8523 106.896C85.2727 107.064 85.6932 107.232 86.1136 107.316C86.3659 107.4 86.5341 107.484 86.7023 107.484C86.9545 107.568 87.1227 107.652 87.2909 107.652C87.7113 107.821 87.9636 107.905 88.3841 107.989C90.9068 108.662 93.5135 109.166 96.1203 109.166H96.2044C101.838 109.166 107.557 106.559 108.482 100.505C108.902 97.898 108.818 95.2072 108.313 92.6845ZM65.5957 42.651C65.5957 42.651 78.7137 46.8555 83.0864 48.3691C85.2727 49.0418 86.9545 50.3032 88.1318 51.8168C89.5613 53.6667 90.3181 55.9372 90.3181 58.2917C90.3181 62.0757 86.1136 62.9166 81.2364 61.3189C80.5637 61.0667 79.7228 60.8144 78.7978 60.5621L73.5001 58.8803C70.8093 57.9553 68.2866 57.1144 65.6798 56.1894V42.651H65.5957ZM93.934 91.339C93.5135 95.1231 92.2522 98.1503 83.5068 95.5435C83.4228 95.5435 83.3387 95.5435 83.2546 95.4594C83.0023 95.3753 82.75 95.2913 82.4978 95.2072C82.1614 95.1231 81.9091 95.039 81.5728 94.8708C80.9841 94.7026 80.3955 94.4504 79.8069 94.3663C78.6296 93.9458 77.5365 93.6936 76.5274 93.2731C76.0228 93.1049 75.5183 92.9367 75.0138 92.8527L72.8274 92.1799C72.407 92.0118 71.9865 91.9277 71.5661 91.7595L65.5116 89.8254V71.1575C65.5116 71.1575 78.7137 75.6142 85.6932 78.4733C89.225 79.9028 91.4113 82.2573 92.5886 84.6118C93.8499 86.9664 94.1863 89.405 93.934 91.339Z" fill="white"/>
</svg>
