<svg width="248" height="38" viewBox="0 0 248 38" fill="none" xmlns="http://www.w3.org/2000/svg">
<path fill-rule="evenodd" clip-rule="evenodd" d="M0.04774 17.9817C0.0238332 18.095 0 18.2079 0 18.3248V19.4935C0.0850938 19.7112 0.117322 19.946 0.0940361 20.1786C0.229139 22.3916 0.761546 24.5622 1.66578 26.5865C2.86654 29.2902 4.68818 31.6725 6.9827 33.5399C9.27722 35.4072 11.9799 36.707 14.8711 37.3335C15.8436 37.5485 16.832 37.6833 17.8266 37.7365C17.9156 37.7231 18.0062 37.7231 18.0952 37.7365H19.7476C19.8366 37.7231 19.9272 37.7231 20.0162 37.7365C21.1546 37.6814 22.2844 37.5103 23.3881 37.226C28.0637 36.0643 32.1186 33.1598 34.7232 29.1068C37.3278 25.0538 38.2852 20.1587 37.3995 15.4231C36.705 11.6012 34.8249 8.095 32.026 5.40152C30.1828 3.56732 27.9745 2.1411 25.5445 1.21538C23.1145 0.289667 20.517 -0.114863 17.9206 0.0280346C16.8239 0.0926532 15.7355 0.259051 14.6696 0.525082C11.9064 1.16689 9.3227 2.42114 7.10917 4.19522C4.89564 5.9693 3.10885 8.21791 1.88072 10.775C0.845687 12.9447 0.239036 15.2938 0.0940361 17.6934C0.0879072 17.7914 0.0677977 17.8867 0.04774 17.9817ZM31.2451 26.3572C31.29 26.4194 31.3409 26.4899 31.3409 26.5731H18.6191V12.2662C18.5654 12.2796 18.5654 12.2628 18.5654 12.2628C18.5654 12.2628 18.5654 12.2796 18.5117 12.3602C18.5155 12.3869 18.5155 12.4141 18.5117 12.4408C16.7519 15.4634 15.0055 18.4994 13.2725 21.522C12.8817 22.213 12.4909 22.8944 12.1021 23.5724C11.5688 24.5024 11.0392 25.4258 10.5186 26.3581C10.4788 26.4316 10.4178 26.4914 10.3435 26.5297C10.2692 26.5681 10.1851 26.5832 10.1022 26.5731H6.52879C6.51263 26.5084 6.54507 26.4535 6.57349 26.4054C6.59232 26.3735 6.60939 26.3446 6.60939 26.3178L8.58415 22.7848C11.4679 17.5814 14.3517 12.3826 17.2355 7.18821C17.451 6.7628 17.8211 6.43596 18.2699 6.27472C18.6819 6.11855 19.1362 6.11536 19.5503 6.26573C19.9645 6.4161 20.3109 6.71005 20.5267 7.09417L31.1931 26.2775C31.2057 26.3027 31.2248 26.3291 31.2451 26.3572Z" fill="#C2C2CC"/>
<path d="M191.014 31.9335L187.158 25.4719H175.068L177.191 21.8314H185.063L179.34 12.2263L167.68 31.9335H162.548L177.325 7.34982C177.558 6.9361 177.873 6.57482 178.252 6.28855C178.639 6.00353 179.115 5.86546 179.595 5.89898C180.044 5.88306 180.485 6.02047 180.845 6.28855C181.215 6.57616 181.521 6.93755 181.745 7.34982L196.522 31.9335H191.014Z" fill="#C2C2CC"/>
<path d="M63.1382 25.4718L66.9937 31.9334H72.4612L57.6841 7.34971C57.4559 6.93683 57.1449 6.57553 56.7706 6.28844C56.4121 6.01739 55.9703 5.87964 55.5213 5.89887C55.0417 5.86768 54.5664 6.00553 54.1779 6.28844C53.7999 6.57164 53.4882 6.9338 53.2644 7.34971L38.4873 31.9334H43.6056L55.266 12.2261L60.9888 21.8313H53.1569L51.0478 25.4718H63.1382Z" fill="#C2C2CC"/>
<path fill-rule="evenodd" clip-rule="evenodd" d="M75.2285 6.24814V31.9334L89.9653 32.0006C91.6876 32.0187 93.3946 31.6755 94.9761 30.9931C96.4927 30.3586 97.864 29.4216 99.0062 28.2391C100.131 27.0156 101.003 25.5822 101.572 24.021C102.206 22.3614 102.524 20.5984 102.512 18.8221C102.528 17.076 102.209 15.3431 101.572 13.7173C100.996 12.2286 100.115 10.8766 98.9859 9.74775C97.8571 8.61891 96.5051 7.73809 95.0164 7.16163C93.4191 6.54229 91.7187 6.23229 90.0056 6.24814H75.2285ZM93.2028 26.8152C92.1912 27.2411 91.1032 27.456 90.0056 27.4466H79.6079V10.7753H90.0056C91.1085 10.7452 92.2059 10.9418 93.2297 11.353C94.1702 11.7344 95.0245 12.3008 95.7418 13.0187C96.4866 13.7844 97.0591 14.7005 97.421 15.7055C97.8312 16.7678 98.0363 17.8983 98.0256 19.037C98.0352 20.1844 97.8301 21.3235 97.421 22.3955C97.0506 23.3776 96.4862 24.2751 95.7615 25.0344C95.0368 25.7937 94.1666 26.3994 93.2028 26.8152Z" fill="#C2C2CC"/>
<path d="M106.207 31.9338V27.447H125.471C126.476 27.5105 127.468 27.1833 128.238 26.5335C128.561 26.2163 128.814 25.8348 128.981 25.4136C129.148 24.9925 129.224 24.541 129.205 24.0885C129.24 23.6283 129.171 23.1663 129.004 22.7362C128.836 22.3061 128.575 21.919 128.238 21.6033C127.445 21.0032 126.463 20.7076 125.471 20.7704H113.662C112.548 20.7684 111.443 20.5682 110.398 20.1793C109.478 19.8504 108.636 19.3334 107.926 18.6613C107.251 18.0085 106.72 17.2214 106.368 16.3507C106.002 15.4317 105.815 14.4515 105.817 13.4625C105.809 12.4766 105.982 11.4976 106.328 10.5742C106.662 9.71243 107.185 8.93661 107.859 8.30391C108.565 7.6108 109.413 7.07913 110.344 6.74559C111.432 6.36511 112.578 6.17868 113.73 6.19481H132.174V10.7757H113.73C113.296 10.749 112.861 10.8089 112.45 10.9519C112.04 11.0949 111.662 11.3181 111.338 11.6086C111.041 11.9122 110.812 12.2747 110.663 12.6727C110.515 13.0707 110.452 13.4954 110.479 13.9192C110.462 14.3311 110.531 14.7419 110.682 15.1257C110.832 15.5095 111.06 15.858 111.352 16.1492C111.999 16.7171 112.842 17.011 113.703 16.9687H125.471C127.618 16.8269 129.741 17.4929 131.422 18.8359C132.141 19.5673 132.695 20.4449 133.045 21.4092C133.395 22.3735 133.533 23.4019 133.45 24.4244C133.474 25.4376 133.319 26.447 132.994 27.4067C132.686 28.3041 132.181 29.1211 131.516 29.7979C130.794 30.5074 129.922 31.0447 128.963 31.3696C127.838 31.7678 126.65 31.9589 125.457 31.9338H106.207Z" fill="#C2C2CC"/>
<path d="M145.084 20.4477V24.8002H155.361C156.737 24.8313 158.105 24.594 159.391 24.1017C160.495 23.69 161.495 23.0412 162.322 22.201C163.148 21.3608 163.78 20.3496 164.173 19.2387C164.611 18.0198 164.825 16.7319 164.805 15.4369C164.826 14.1375 164.613 12.8448 164.173 11.6218C163.777 10.5368 163.149 9.55117 162.333 8.7335C161.492 7.92382 160.489 7.3012 159.391 6.90651C158.099 6.44147 156.733 6.21833 155.361 6.24826H137.306V31.9335H141.752V10.6948H155.401C156.075 10.6627 156.749 10.765 157.383 10.9956C158.017 11.2262 158.599 11.5806 159.095 12.0382C159.547 12.5049 159.9 13.0589 160.131 13.6664C160.362 14.2738 160.466 14.922 160.439 15.5713C160.464 16.2203 160.358 16.8678 160.127 17.4749C159.897 18.082 159.545 18.6362 159.095 19.1043C158.604 19.5683 158.022 19.9268 157.387 20.1579C156.752 20.3889 156.076 20.4875 155.401 20.4477H145.084Z" fill="#C2C2CC"/>
<path d="M202.513 30.9262C204.076 31.6078 205.765 31.9512 207.47 31.9337L221.388 31.9606V27.4737H207.537C206.44 27.4832 205.352 27.2683 204.34 26.8423C203.389 26.4298 202.531 25.8315 201.815 25.0825C201.088 24.3074 200.526 23.3935 200.162 22.3958C199.753 21.3238 199.548 20.1847 199.558 19.0373C199.545 17.8897 199.75 16.75 200.162 15.6789C200.518 14.7284 201.057 13.8567 201.747 13.1131C202.465 12.3761 203.324 11.7912 204.273 11.3936C205.286 10.9722 206.374 10.7619 207.47 10.7756H221.388V6.1947H207.47C205.776 6.17549 204.093 6.48101 202.513 7.09476C201.039 7.67332 199.692 8.53598 198.55 9.63373C197.409 10.7799 196.521 12.1529 195.944 13.6639C195.299 15.3061 194.98 17.0582 195.004 18.8224C194.985 20.5993 195.304 22.3635 195.944 24.0213C196.514 25.5572 197.39 26.9613 198.52 28.1483C199.649 29.3353 201.007 30.2804 202.513 30.9262Z" fill="#C2C2CC"/>
<path d="M225.028 31.9333V6.24805H247.959V10.7752H229.488V27.4465H248V31.9333H225.028Z" fill="#C2C2CC"/>
<path d="M232.766 20.7699V16.995H247.005V20.7699H232.766Z" fill="#C2C2CC"/>
</svg>
