<svg width="266" height="41" viewBox="0 0 266 41" fill="none" xmlns="http://www.w3.org/2000/svg">
<path d="M0.696777 20.2887C0.696777 20.0594 0.782777 19.8444 0.79711 19.615C0.95182 17.0548 1.59909 14.5484 2.70344 12.2334C4.0138 9.50503 5.92025 7.10585 8.28201 5.21296C10.6438 3.32008 13.4005 1.98184 16.3487 1.29706C17.486 1.01321 18.6473 0.835674 19.8174 0.766728C22.5877 0.614261 25.3591 1.04588 27.9518 2.03359C30.5446 3.02129 32.9007 4.54302 34.8674 6.50005C37.8538 9.37389 39.8597 13.1149 40.6007 17.1927C41.5457 22.2454 40.5242 27.4683 37.7452 31.7927C34.9662 36.1171 30.6397 39.2161 25.6511 40.4557C24.4735 40.759 23.268 40.9415 22.0534 41.0003C21.9584 40.986 21.8618 40.986 21.7667 41.0003H20.0037C19.9087 40.986 19.8121 40.986 19.7171 41.0003C18.656 40.9436 17.6013 40.7997 16.5637 40.5703C13.4789 39.9018 10.5952 38.5151 8.14707 36.5227C5.6989 34.5303 3.75528 31.9884 2.47411 29.1037C1.50932 26.9438 0.941261 24.6279 0.79711 22.2667C0.821955 22.0185 0.787569 21.768 0.696777 21.5357L0.696777 20.2887ZM34.1364 29.0893C34.1364 28.9603 34.0217 28.86 33.9787 28.774L23.7877 10.4417L22.5981 8.30605C22.3678 7.89621 21.9982 7.58257 21.5563 7.42213C21.1144 7.26169 20.6296 7.26509 20.1901 7.43172C19.7112 7.60375 19.3163 7.95248 19.0864 8.40638C16.0095 13.9486 12.9326 19.4956 9.85576 25.0473L7.74876 28.817C7.74876 28.8887 7.6341 28.9747 7.66276 29.0893H11.4754C11.5639 29.1001 11.6537 29.084 11.7329 29.0431C11.8122 29.0022 11.8773 28.9384 11.9198 28.86C12.8801 27.14 13.8691 25.4487 14.8581 23.7C16.7071 20.475 18.5704 17.2357 20.4481 14.0107C20.4522 13.9822 20.4522 13.9532 20.4481 13.9247C20.5627 13.7527 20.4481 13.853 20.5627 13.8244V29.0893H34.1364Z" fill="#C2C2CC"/>
<path d="M72.176 34.8084L68.0624 27.9141H55.1624L57.4127 24.0298H65.769L59.663 13.7815L47.2217 34.8084H41.7607L57.5274 8.5785C57.7662 8.13474 58.0988 7.74833 58.502 7.44617C58.9165 7.14431 59.4237 6.99723 59.9354 7.0305C60.4145 7.00999 60.8858 7.15696 61.2684 7.44617C61.6678 7.75248 61.9996 8.13797 62.243 8.5785L78.0097 34.8084H72.176Z" fill="#C2C2CC"/>
<path d="M80.9624 34.8082V7.40296H96.729C98.5568 7.38605 100.371 7.71681 102.075 8.37763C103.664 8.99269 105.106 9.93249 106.311 11.1369C107.515 12.3413 108.455 13.7839 109.07 15.3723C109.75 17.1069 110.09 18.9559 110.073 20.8189C110.086 22.7142 109.746 24.5952 109.07 26.3659C108.462 28.0317 107.532 29.5611 106.332 30.8666C105.114 32.1282 103.651 33.128 102.032 33.8049C100.345 34.5331 98.5237 34.8993 96.686 34.8799L80.9624 34.8082ZM96.729 30.0209C97.9002 30.031 99.061 29.8017 100.14 29.3473C101.169 28.9036 102.097 28.2574 102.87 27.4472C103.644 26.6371 104.246 25.6795 104.641 24.6316C105.078 23.4878 105.296 22.2725 105.286 21.0483C105.297 19.8333 105.079 18.6271 104.641 17.4936C104.255 16.4213 103.644 15.4439 102.849 14.6269C102.084 13.861 101.172 13.2566 100.169 12.8496C99.0766 12.4109 97.9058 12.2011 96.729 12.2333H85.6351V30.0209H96.729Z" fill="#C2C2CC"/>
<path d="M114.015 34.8089V30.0215H134.569C135.642 30.0894 136.7 29.7402 137.522 29.0469C137.867 28.7084 138.137 28.3014 138.314 27.852C138.492 27.4027 138.574 26.921 138.554 26.4382C138.591 25.9472 138.517 25.4542 138.339 24.9953C138.16 24.5364 137.881 24.1234 137.522 23.7865C136.676 23.1462 135.628 22.8309 134.569 22.8979H121.97C120.781 22.8957 119.602 22.6822 118.487 22.2672C117.505 21.9163 116.607 21.3647 115.85 20.6476C115.129 19.9511 114.563 19.1112 114.187 18.1822C113.797 17.2017 113.598 16.1558 113.599 15.1006C113.591 14.0487 113.776 13.0042 114.144 12.0189C114.501 11.0994 115.059 10.2716 115.778 9.59657C116.531 8.85705 117.436 8.28978 118.43 7.93391C119.59 7.52794 120.813 7.32903 122.042 7.34624H141.721V12.2339H122.042C121.579 12.2054 121.115 12.2694 120.677 12.4219C120.239 12.5745 119.835 12.8127 119.49 13.1226C119.174 13.4465 118.928 13.8333 118.77 14.2579C118.612 14.6826 118.545 15.1357 118.573 15.5879C118.555 16.0273 118.629 16.4657 118.79 16.8752C118.95 17.2847 119.193 17.6565 119.505 17.9672C120.196 18.5732 121.095 18.8867 122.013 18.8416H134.569C136.86 18.6903 139.125 19.4009 140.919 20.8339C141.686 21.6142 142.277 22.5506 142.65 23.5795C143.024 24.6083 143.171 25.7056 143.083 26.7965C143.108 27.8776 142.943 28.9546 142.596 29.9785C142.267 30.936 141.728 31.8078 141.019 32.5299C140.249 33.2869 139.318 33.8601 138.296 34.2069C137.095 34.6317 135.828 34.8356 134.555 34.8089H114.015Z" fill="#C2C2CC"/>
<path d="M155.496 27.198V22.554H166.504C167.224 22.5965 167.945 22.4913 168.623 22.2448C169.301 21.9983 169.921 21.6157 170.445 21.1207C170.926 20.6212 171.3 20.0299 171.547 19.3821C171.793 18.7344 171.906 18.0435 171.879 17.351C171.908 16.6583 171.797 15.9667 171.55 15.3186C171.304 14.6705 170.928 14.0794 170.445 13.5814C169.916 13.0932 169.295 12.715 168.618 12.469C167.942 12.2229 167.223 12.1138 166.504 12.148H151.941V34.809H147.197V7.40371H166.461C167.925 7.37178 169.383 7.60986 170.761 8.10605C171.933 8.52716 173.003 9.19148 173.9 10.0554C174.77 10.9278 175.44 11.9794 175.863 13.137C176.332 14.442 176.56 15.8212 176.537 17.2077C176.559 18.5894 176.331 19.9635 175.863 21.264C175.444 22.4493 174.77 23.5282 173.888 24.4247C173.006 25.3212 171.939 26.0134 170.761 26.4527C169.389 26.9779 167.929 27.2311 166.461 27.198H155.496Z" fill="#C2C2CC"/>
<path d="M204.501 34.8086L200.388 27.9143H187.488L189.752 24.03H198.152L192.046 13.7816L179.604 34.8086H174.129L189.896 8.57865C190.144 8.13723 190.481 7.75176 190.885 7.44632C191.298 7.14221 191.806 6.9949 192.318 7.03065C192.797 7.01367 193.267 7.16028 193.651 7.44632C194.046 7.75319 194.373 8.13878 194.611 8.57865L210.378 34.8086H204.501Z" fill="#C2C2CC"/>
<path d="M222.06 34.8087C220.241 34.8273 218.438 34.461 216.771 33.7337C215.164 33.0447 213.715 32.0363 212.51 30.7698C211.305 29.5034 210.37 28.0052 209.762 26.3664C209.079 24.5977 208.739 22.7153 208.759 20.8194C208.733 18.9371 209.074 17.0677 209.762 15.3154C210.378 13.7033 211.325 12.2383 212.543 11.0155C213.761 9.84419 215.198 8.92375 216.771 8.30646C218.456 7.65161 220.252 7.32562 222.06 7.34613H236.909V12.2338H222.06C220.89 12.2192 219.729 12.4435 218.649 12.8931C217.636 13.3174 216.72 13.9414 215.954 14.7278C215.217 15.5212 214.642 16.4513 214.263 17.4654C213.822 18.6082 213.604 19.8242 213.618 21.0488C213.607 22.273 213.826 23.4883 214.263 24.6321C214.651 25.6966 215.251 26.6717 216.026 27.4988C216.79 28.2979 217.706 28.9363 218.72 29.3764C219.8 29.8309 220.961 30.0601 222.132 30.0501H236.909V34.8374L222.06 34.8087Z" fill="#C2C2CC"/>
<path d="M240.793 34.8081V7.40283H265.26V12.2332H245.552V30.0208H265.303V34.8081H240.793ZM249.049 22.8971V18.8695H264.243V22.8971H249.049Z" fill="#C2C2CC"/>
</svg>
