<svg width="150" height="120" viewBox="0 0 150 120" fill="none" xmlns="http://www.w3.org/2000/svg">
<path d="M10.9057 102.531C14.489 102.531 17.4179 101.004 19.4433 98.7295V90.9709H9.597V94.1803H15.8288V97.3897C14.894 98.2933 13.0245 99.2592 10.9057 99.2592C6.79268 99.2592 3.73909 96.081 3.73909 91.7499C3.73909 87.3565 6.79268 84.2405 10.9057 84.2405C13.2114 84.2405 15.1745 85.4557 16.2962 87.0137L19.2563 85.3C17.6049 82.9319 14.9564 81 10.9057 81C4.86082 81 0 85.2065 0 91.7499C0 98.2621 4.86082 102.531 10.9057 102.531Z" fill="#C2C2CC"/>
<path d="M28.2861 102.126V91.8745C28.9404 90.7839 30.7788 89.8492 32.181 89.8492C32.5861 89.8492 32.8977 89.8803 33.1781 89.9427V86.7021C31.2462 86.7021 29.439 87.8238 28.2861 89.2572V87.076H25.0144V102.126H28.2861Z" fill="#C2C2CC"/>
<path d="M44.6658 102.5C47.0339 102.5 49.2462 101.721 50.773 100.287L49.2773 98.1375C48.1868 99.2281 46.473 99.8201 44.9774 99.8201C42.1419 99.8201 40.4593 97.9194 40.2101 95.6759H51.8012V94.8658C51.8012 90.1296 48.9346 86.7021 44.4165 86.7021C39.9608 86.7021 36.7826 90.2231 36.7826 94.5854C36.7826 99.3527 40.1166 102.5 44.6658 102.5ZM48.6542 93.339H40.1789C40.3035 91.5318 41.6122 89.3818 44.3854 89.3818C47.3455 89.3818 48.5607 91.5629 48.6542 93.339Z" fill="#C2C2CC"/>
<path d="M63.8798 102.5C66.2478 102.5 68.4601 101.721 69.9869 100.287L68.4913 98.1375C67.4007 99.2281 65.687 99.8201 64.1913 99.8201C61.3559 99.8201 59.6733 97.9194 59.424 95.6759H71.0152V94.8658C71.0152 90.1296 68.1485 86.7021 63.6305 86.7021C59.1747 86.7021 55.9965 90.2231 55.9965 94.5854C55.9965 99.3527 59.3305 102.5 63.8798 102.5ZM67.8681 93.339H59.3928C59.5175 91.5318 60.8262 89.3818 63.5993 89.3818C66.5594 89.3818 67.7746 91.5629 67.8681 93.339Z" fill="#C2C2CC"/>
<path d="M89.5748 102.126V91.5318C89.5748 88.447 87.9545 86.7021 84.714 86.7021C82.3459 86.7021 80.3829 87.9173 79.3858 89.1014V87.076H76.1141V102.126H79.3858V91.5941C80.1647 90.597 81.5981 89.5999 83.2495 89.5999C85.0879 89.5999 86.3031 90.3477 86.3031 92.7158V102.126H89.5748Z" fill="#C2C2CC"/>
<path d="M2.08397 119.735V116.532H5.77502V115.39H2.08397V113.484H5.85261V112.342H0.787109V119.735H2.08397Z" fill="#C2C2CC"/>
<path d="M14.5808 119.735L11.6767 112.342H10.0584L7.15432 119.735H8.62853L9.17166 118.305H12.5634L13.1066 119.735H14.5808ZM12.1977 117.164H9.53744L10.8675 113.639L12.1977 117.164Z" fill="#C2C2CC"/>
<path d="M19.8757 119.868C21.361 119.868 22.281 119.081 22.8463 118.195L21.7378 117.64C21.3831 118.25 20.6627 118.716 19.8757 118.716C18.4125 118.716 17.3263 117.585 17.3263 116.044C17.3263 114.481 18.4125 113.373 19.8757 113.373C20.6627 113.373 21.3831 113.827 21.7378 114.448L22.8352 113.872C22.292 112.985 21.361 112.22 19.8757 112.22C17.6921 112.22 15.9962 113.761 15.9962 116.044C15.9962 118.317 17.6921 119.868 19.8757 119.868Z" fill="#C2C2CC"/>
<path d="M26.5001 119.735V112.342H25.2032V119.735H26.5001Z" fill="#C2C2CC"/>
<path d="M33.8688 119.735V118.594H30.61V112.342H29.3131V119.735H33.8688Z" fill="#C2C2CC"/>
<path d="M37.6358 119.735V112.342H36.339V119.735H37.6358Z" fill="#C2C2CC"/>
<path d="M43.5968 119.735V113.484H45.8359V112.342H40.061V113.484H42.3V119.735H43.5968Z" fill="#C2C2CC"/>
<path d="M51.6678 119.735V116.665L54.5276 112.342H53.0423L51.0139 115.501L48.9854 112.342H47.5001L50.371 116.665V119.735H51.6678Z" fill="#C2C2CC"/>
<path d="M68.5218 119.735V112.342H66.6929L64.6866 117.419L62.6693 112.342H60.8404V119.735H62.1373V114.027L64.4095 119.735H64.9637L67.2249 114.027V119.735H68.5218Z" fill="#C2C2CC"/>
<path d="M78.0871 119.735L75.183 112.342H73.5647L70.6606 119.735H72.1348L72.6779 118.305H76.0697L76.6129 119.735H78.0871ZM75.7039 117.164H73.0437L74.3738 113.639L75.7039 117.164Z" fill="#C2C2CC"/>
<path d="M86.6203 119.735V112.342H85.3234V117.463L81.5437 112.342H80.2136V119.735H81.5105V114.448L85.3678 119.735H86.6203Z" fill="#C2C2CC"/>
<path d="M96.183 119.735L93.2789 112.342H91.6606L88.7565 119.735H90.2307L90.7739 118.305H94.1656L94.7088 119.735H96.183ZM93.7999 117.164H91.1396L92.4697 113.639L93.7999 117.164Z" fill="#C2C2CC"/>
<path d="M101.478 119.879C102.753 119.879 103.794 119.336 104.515 118.527V115.767H101.012V116.909H103.229V118.051C102.897 118.372 102.232 118.716 101.478 118.716C100.015 118.716 98.9285 117.585 98.9285 116.044C98.9285 114.481 100.015 113.373 101.478 113.373C102.298 113.373 102.996 113.805 103.395 114.359L104.448 113.75C103.861 112.907 102.919 112.22 101.478 112.22C99.3275 112.22 97.5984 113.717 97.5984 116.044C97.5984 118.361 99.3275 119.879 101.478 119.879Z" fill="#C2C2CC"/>
<path d="M112.261 119.735V118.594H108.492V116.532H112.183V115.39H108.492V113.484H112.261V112.342H107.195V119.735H112.261Z" fill="#C2C2CC"/>
<path d="M122.604 119.735V112.342H120.775L118.769 117.419L116.751 112.342H114.922V119.735H116.219V114.027L118.492 119.735H119.046L121.307 114.027V119.735H122.604Z" fill="#C2C2CC"/>
<path d="M130.573 119.735V118.594H126.804V116.532H130.495V115.39H126.804V113.484H130.573V112.342H125.507V119.735H130.573Z" fill="#C2C2CC"/>
<path d="M139.642 119.735V112.342H138.345V117.463L134.565 112.342H133.235V119.735H134.532V114.448L138.389 119.735H139.642Z" fill="#C2C2CC"/>
<path d="M145.602 119.735V113.484H147.841V112.342H142.066V113.484H144.305V119.735H145.602Z" fill="#C2C2CC"/>
<path d="M112.32 102.126L102.879 91.189L111.541 81.3428H108.301L99.1087 92.0615V81.3428H96.5225V102.126H99.1087V95.1462L101.196 92.7782L109.08 102.126H112.32Z" fill="#C2C2CC"/>
<path d="M123.394 102.5C125.825 102.5 127.85 101.658 129.377 100.163L128.255 98.6361C127.04 99.8824 125.326 100.568 123.581 100.568C120.341 100.568 118.378 98.1998 118.191 95.3644H130.343V94.7723C130.343 90.2543 127.663 86.7021 123.114 86.7021C118.814 86.7021 115.698 90.2231 115.698 94.5854C115.698 99.2904 118.907 102.5 123.394 102.5ZM128.037 93.6195H118.16C118.284 91.3448 119.873 88.634 123.083 88.634C126.51 88.634 128.006 91.4072 128.037 93.6195Z" fill="#C2C2CC"/>
<path d="M135.81 108.015C136.215 108.14 136.994 108.233 137.493 108.233C139.487 108.202 141.014 107.361 141.918 105.179L149.458 87.076H146.934L141.918 99.415L136.932 87.076H134.377L140.671 102.282L139.674 104.556C139.144 105.803 138.459 106.145 137.431 106.145C137.057 106.145 136.496 106.052 136.153 105.896L135.81 108.015Z" fill="#C2C2CC"/>
<path d="M57.3965 35.9165L71.4912 14.668H84.4112L70.6369 35.9165L85.1586 56.5244H71.4912L57.3965 35.9165Z" fill="#C2C2CC"/>
<path d="M110.21 35.376C110.21 36.7495 110.132 38.105 109.979 39.438C109.979 39.4443 109.978 39.4502 109.978 39.4565C107.954 57.0723 92.9917 70.752 74.834 70.752C55.2964 70.752 39.458 54.9136 39.458 35.376C39.458 15.8384 55.2964 0 74.834 0C90.0898 0 103.091 9.65723 108.056 23.1924H101.014C96.4194 13.3374 86.4243 6.50732 74.834 6.50732C58.8896 6.50732 45.9648 19.4321 45.9648 35.3765C45.9648 51.3203 58.8896 64.2456 74.834 64.2456C89.3931 64.2456 101.435 53.4683 103.417 39.4565H89.7954V32.5894H110.102L110.102 32.5947C110.173 33.5122 110.21 34.4399 110.21 35.376Z" fill="#C2C2CC"/>
</svg>
