<svg width="214" height="77" viewBox="0 0 214 77" fill="none" xmlns="http://www.w3.org/2000/svg">
<path d="M104.356 23.221C106.884 23.221 108.78 23.9132 110.045 25.2978C111.339 26.6522 111.986 28.5784 111.986 31.0766V45.8397H108.555V31.5281C108.555 29.9329 108.118 28.6838 107.245 27.7808C106.403 26.8478 105.199 26.3813 103.634 26.3813C102.851 26.3813 102.054 26.5468 101.241 26.8779C100.428 27.1789 99.6908 27.6003 99.0286 28.142C98.3966 28.6838 97.8699 29.3159 97.4485 30.0382C97.0572 30.7305 96.8616 31.4679 96.8616 32.2504V45.8397H93.3853V23.7176H96.5004L96.8616 27.7357C97.7344 26.3813 98.7879 25.2978 100.022 24.4851C101.256 23.6424 102.701 23.221 104.356 23.221Z" fill="#C2C2CC"/>
<path d="M126.74 43.1309C128.245 43.1309 129.584 42.8901 130.758 42.4085C131.932 41.927 132.805 41.4454 133.377 40.9638L135.002 43.4018C133.858 44.4251 132.549 45.1625 131.074 45.614C129.599 46.0654 128.095 46.2912 126.56 46.2912C125.205 46.2912 123.926 46.1256 122.722 45.7946C121.518 45.4635 120.45 44.9669 119.517 44.3047C118.614 43.6425 117.891 42.8148 117.35 41.8216C116.838 40.7983 116.582 39.5944 116.582 38.2098V30.9411C116.582 29.7673 116.823 28.7139 117.304 27.7808C117.786 26.8177 118.433 26.0051 119.246 25.3429C120.088 24.6807 121.067 24.1691 122.18 23.8079C123.324 23.4467 124.543 23.2661 125.837 23.2661C127.071 23.2661 128.215 23.4467 129.268 23.8079C130.322 24.1691 131.24 24.6807 132.022 25.3429C132.805 26.0051 133.422 26.8027 133.873 27.7357C134.325 28.6687 134.551 29.7071 134.551 30.8509V34.0563L120.013 36.1331V38.2098C120.013 39.0526 120.194 39.79 120.555 40.422C120.946 41.024 121.458 41.5357 122.09 41.9571C122.722 42.3483 123.444 42.6493 124.257 42.86C125.07 43.0406 125.897 43.1309 126.74 43.1309ZM125.792 26.3813C125.01 26.3813 124.272 26.5017 123.58 26.7425C122.888 26.9532 122.271 27.2541 121.729 27.6454C121.217 28.0367 120.796 28.5183 120.465 29.0901C120.164 29.6319 120.013 30.2489 120.013 30.9411V33.5597L131.029 31.9795V30.7154C131.029 29.3911 130.533 28.3377 129.539 27.5551C128.576 26.7726 127.327 26.3813 125.792 26.3813Z" fill="#C2C2CC"/>
<path d="M149.682 15.1396C150.916 15.1396 152.06 15.3202 153.114 15.6814C154.167 16.0125 155.085 16.5242 155.867 17.2164C156.68 17.8786 157.312 18.6912 157.764 19.6544C158.215 20.5874 158.441 21.6709 158.441 22.905V26.291C158.441 27.4949 158.2 28.5484 157.719 29.4513C157.267 30.3542 156.65 31.1067 155.867 31.7086C155.085 32.3106 154.167 32.7621 153.114 33.0631C152.06 33.364 150.946 33.5145 149.773 33.5145H143.362V45.8397H139.931V15.1396H149.682ZM155.01 22.905C155.01 22.1826 154.859 21.5505 154.558 21.0088C154.287 20.4369 153.896 19.9553 153.384 19.5641C152.903 19.1427 152.331 18.8267 151.669 18.616C151.037 18.4053 150.375 18.2999 149.682 18.2999H143.362V30.3542H149.682C150.375 30.3542 151.037 30.279 151.669 30.1285C152.301 29.978 152.858 29.7372 153.339 29.4061C153.851 29.0751 154.257 28.6537 154.558 28.142C154.859 27.6304 155.01 27.0133 155.01 26.291V22.905Z" fill="#C2C2CC"/>
<path d="M171.583 23.221C172.907 23.221 174.126 23.4016 175.239 23.7628C176.353 24.1239 177.331 24.6506 178.174 25.3429C179.017 26.0352 179.664 26.8629 180.115 27.826C180.597 28.7891 180.838 29.8877 180.838 31.1217V38.3001C180.838 39.5342 180.582 40.6478 180.07 41.641C179.559 42.6042 178.881 43.4319 178.039 44.1241C177.196 44.8164 176.218 45.3431 175.104 45.7043C173.99 46.0654 172.817 46.246 171.583 46.246C170.349 46.246 169.16 46.0654 168.016 45.7043C166.902 45.3431 165.909 44.8164 165.036 44.1241C164.193 43.4319 163.516 42.6042 163.005 41.641C162.493 40.6478 162.237 39.5342 162.237 38.3001V31.1217C162.237 29.8877 162.478 28.7891 162.959 27.826C163.471 26.8629 164.148 26.0352 164.991 25.3429C165.834 24.6506 166.827 24.1239 167.971 23.7628C169.115 23.4016 170.318 23.221 171.583 23.221ZM177.407 31.1217C177.407 30.3693 177.241 29.7071 176.91 29.1353C176.579 28.5333 176.142 28.0367 175.601 27.6454C175.059 27.224 174.442 26.908 173.75 26.6973C173.057 26.4866 172.335 26.3813 171.583 26.3813C170.83 26.3813 170.093 26.4866 169.37 26.6973C168.678 26.908 168.046 27.224 167.474 27.6454C166.932 28.0367 166.496 28.5333 166.165 29.1353C165.834 29.7071 165.668 30.3693 165.668 31.1217V38.3001C165.668 39.0526 165.834 39.7298 166.165 40.3318C166.496 40.9337 166.932 41.4454 167.474 41.8668C168.016 42.258 168.648 42.559 169.37 42.7697C170.093 42.9804 170.83 43.0857 171.583 43.0857C172.335 43.0857 173.057 42.9804 173.75 42.7697C174.442 42.559 175.059 42.258 175.601 41.8668C176.142 41.4454 176.579 40.9337 176.91 40.3318C177.241 39.7298 177.407 39.0526 177.407 38.3001V31.1217Z" fill="#C2C2CC"/>
<path d="M194.872 23.2661C195.805 23.2661 196.588 23.3715 197.22 23.5822L196.588 26.7876C196.317 26.7274 195.971 26.6823 195.549 26.6522C195.128 26.592 194.737 26.5619 194.376 26.5619C193.653 26.5619 192.976 26.7274 192.344 27.0585C191.742 27.3896 191.23 27.841 190.809 28.4129C190.388 28.9848 190.056 29.6319 189.816 30.3542C189.575 31.0766 189.454 31.829 189.454 32.6116V45.8397H185.978V23.7176H188.687L189.184 28.0066C189.394 27.4046 189.68 26.8177 190.041 26.2458C190.433 25.674 190.869 25.1774 191.351 24.756C191.832 24.3045 192.374 23.9433 192.976 23.6725C193.578 23.4016 194.21 23.2661 194.872 23.2661Z" fill="#C2C2CC"/>
<path d="M208.582 42.9954C209.004 42.9954 209.455 42.9653 209.937 42.9051C210.418 42.8148 210.87 42.7246 211.291 42.6343C211.713 42.544 212.089 42.4537 212.42 42.3634C212.781 42.243 213.022 42.1527 213.142 42.0925L214 44.6659C213.729 44.7863 213.383 44.9217 212.962 45.0722C212.54 45.2227 212.074 45.3732 211.562 45.5237C211.081 45.6742 210.569 45.7946 210.027 45.8849C209.515 46.0052 209.004 46.0654 208.492 46.0654C206.626 46.0654 205.181 45.614 204.158 44.711C203.135 43.778 202.623 42.3784 202.623 40.5123V26.3813H198.424V23.7176H202.623V17.081H206.054V23.7176H212.059V26.3813H206.054V40.2415C206.054 41.0541 206.265 41.7163 206.686 42.2279C207.138 42.7396 207.77 42.9954 208.582 42.9954Z" fill="#C2C2CC"/>
<path d="M150.137 56.1717L142.745 54.847C143.359 52.4919 144.537 50.6872 146.278 49.4328C148.031 48.1784 150.508 47.5513 153.708 47.5513C157.381 47.5513 160.037 48.236 161.675 49.6056C163.314 50.9751 164.133 52.6967 164.133 54.7702C164.133 55.9862 163.8 57.0869 163.135 58.0725C162.469 59.058 161.464 59.922 160.12 60.6644C161.208 60.9332 162.04 61.2468 162.616 61.6051C163.551 62.1811 164.274 62.9427 164.786 63.8899C165.31 64.8242 165.573 65.9442 165.573 67.2497C165.573 68.8881 165.144 70.4624 164.286 71.9728C163.429 73.4703 162.194 74.6287 160.581 75.4478C158.968 76.2542 156.85 76.6574 154.226 76.6574C151.666 76.6574 149.644 76.3566 148.159 75.755C146.687 75.1534 145.471 74.2767 144.511 73.1247C143.564 71.96 142.834 70.5008 142.323 68.7473L150.137 67.7105C150.444 69.2849 150.917 70.3792 151.557 70.9936C152.21 71.5952 153.036 71.896 154.034 71.896C155.084 71.896 155.954 71.512 156.645 70.744C157.349 69.976 157.701 68.9521 157.701 67.6721C157.701 66.3666 157.362 65.3554 156.684 64.6386C156.018 63.9219 155.109 63.5635 153.957 63.5635C153.343 63.5635 152.498 63.7171 151.423 64.0243L151.826 58.4373C152.261 58.5013 152.601 58.5333 152.844 58.5333C153.868 58.5333 154.719 58.2069 155.397 57.5541C156.088 56.9013 156.434 56.1269 156.434 55.231C156.434 54.3734 156.178 53.6886 155.666 53.1767C155.154 52.6647 154.45 52.4087 153.554 52.4087C152.633 52.4087 151.884 52.6903 151.308 53.2535C150.732 53.8038 150.341 54.7766 150.137 56.1717Z" fill="#C2C2CC"/>
<path d="M188.269 54.367L180.494 55.327C180.289 54.239 179.943 53.471 179.457 53.0231C178.983 52.5751 178.395 52.3511 177.691 52.3511C176.424 52.3511 175.438 52.9911 174.734 54.271C174.222 55.1926 173.844 57.1637 173.601 60.1844C174.536 59.2372 175.496 58.5397 176.481 58.0917C177.467 57.6309 178.606 57.4005 179.899 57.4005C182.407 57.4005 184.526 58.2965 186.254 60.0884C187.994 61.8803 188.865 64.1523 188.865 66.9041C188.865 68.7601 188.423 70.456 187.54 71.992C186.67 73.5279 185.454 74.6927 183.892 75.4862C182.343 76.267 180.398 76.6574 178.055 76.6574C175.24 76.6574 172.98 76.1774 171.278 75.2174C169.576 74.2575 168.213 72.7279 167.189 70.6288C166.177 68.5169 165.672 65.7266 165.672 62.2579C165.672 57.1765 166.741 53.4582 168.878 51.1031C171.016 48.7352 173.979 47.5513 177.767 47.5513C180.007 47.5513 181.774 47.8137 183.066 48.3384C184.372 48.8504 185.454 49.6056 186.311 50.604C187.169 51.6023 187.821 52.8567 188.269 54.367ZM173.87 66.9041C173.87 68.4273 174.254 69.624 175.022 70.4944C175.79 71.352 176.731 71.7808 177.844 71.7808C178.868 71.7808 179.726 71.3904 180.417 70.6096C181.108 69.8288 181.454 68.6641 181.454 67.1153C181.454 65.5282 181.095 64.3186 180.379 63.4867C179.662 62.6547 178.772 62.2387 177.71 62.2387C176.622 62.2387 175.707 62.6419 174.964 63.4483C174.235 64.2546 173.87 65.4066 173.87 66.9041Z" fill="#C2C2CC"/>
<path d="M191.882 48.0313H210.448V54.271H197.872L197.2 58.4949C198.071 58.0853 198.928 57.7781 199.773 57.5733C200.63 57.3685 201.475 57.2661 202.307 57.2661C205.123 57.2661 207.408 58.1173 209.161 59.8196C210.915 61.5219 211.792 63.6659 211.792 66.2514C211.792 68.0689 211.337 69.816 210.428 71.4928C209.533 73.1695 208.253 74.4495 206.589 75.3326C204.938 76.2158 202.819 76.6574 200.234 76.6574C198.378 76.6574 196.784 76.4846 195.453 76.139C194.135 75.7806 193.008 75.2558 192.074 74.5647C191.152 73.8607 190.404 73.0671 189.828 72.1839C189.252 71.3008 188.772 70.2 188.388 68.8817L196.298 68.0177C196.49 69.2849 196.938 70.2512 197.642 70.9168C198.346 71.5696 199.184 71.896 200.157 71.896C201.245 71.896 202.141 71.4864 202.845 70.6672C203.562 69.8352 203.92 68.6001 203.92 66.9617C203.92 65.285 203.562 64.0563 202.845 63.2755C202.128 62.4947 201.174 62.1043 199.984 62.1043C199.229 62.1043 198.499 62.2899 197.795 62.6611C197.271 62.9299 196.695 63.4163 196.067 64.1202L189.405 63.1603L191.882 48.0313Z" fill="#C2C2CC"/>
<path d="M45.5107 19.9179L63.2238 10.0293L71.7203 14.9736L54.1032 24.9582V45.8394L45.7028 40.5111L45.5107 19.9179Z" fill="#C2C2CC"/>
<path d="M81.9443 35.8072L81.8003 25.2466L67.3994 33.5511V44.2557L81.9443 35.8072Z" fill="#C2C2CC"/>
<path fill-rule="evenodd" clip-rule="evenodd" d="M37.7822 15.406L63.9917 0.285156L90.0093 15.55V45.5038L67.4959 58.3205V49.248L85.545 38.4474L85.497 18.1422L63.8957 30.5269L63.8477 60.5767L37.7822 45.6478V41.5196H20.3092C19.3813 41.5196 18.6291 40.7674 18.6291 39.8395C18.6291 38.9116 19.3813 38.1594 20.3092 38.1594H37.7822V36.3353H27.1256C26.1977 36.3353 25.4455 35.5831 25.4455 34.6552C25.4455 33.7273 26.1977 32.9751 27.1256 32.9751H37.7822V31.151H18.3891C17.4612 31.151 16.709 30.3988 16.709 29.4709C16.709 28.543 17.4612 27.7908 18.3891 27.7908H37.7822V25.9667H1.87614C0.948245 25.9667 0.196045 25.2144 0.196045 24.2866C0.196045 23.3587 0.948245 22.6065 1.87614 22.6065H37.7822V15.406ZM63.7517 5.42145L41.8625 17.7102V43.1996L59.2395 53.4242V27.9828L80.8887 15.358L63.7517 5.42145Z" fill="#C2C2CC"/>
</svg>
