<svg width="256" height="51" viewBox="0 0 256 51" fill="none" xmlns="http://www.w3.org/2000/svg">
<path d="M48.2774 36.953C49.7683 34.0004 50.7027 30.7187 50.943 27.246L50.6367 27.4146L48.2774 31.6162V36.953Z" fill="#C2C2CC"/>
<path d="M48.2774 28.8899L48.4216 28.6332L48.2774 28.7125V28.8899Z" fill="#C2C2CC"/>
<path d="M46.9428 29.4468V31.2668L45.846 33.2199L44.486 30.7983L46.9428 29.4468Z" fill="#C2C2CC"/>
<path d="M48.2774 27.1893L49.6592 26.4292L50.3029 25.2826L50.284 25.2486L48.2774 24.1448V27.1893Z" fill="#C2C2CC"/>
<path d="M46.9428 23.4105V27.9236L43.8324 29.6344L41.337 25.1908L43.4238 21.4747L46.9428 23.4105Z" fill="#C2C2CC"/>
<path d="M48.2774 22.6213L49.0461 23.0441L48.2774 21.6753V22.6213Z" fill="#C2C2CC"/>
<path d="M46.9428 19.2988V21.887L44.0775 20.3108L45.7942 17.2533L46.9428 19.2988Z" fill="#C2C2CC"/>
<path d="M48.2774 18.9491L50.9453 23.7004C50.7087 20.2153 49.7731 16.9225 48.2774 13.9605V18.9491Z" fill="#C2C2CC"/>
<path d="M46.9428 15.208V16.5723L46.5598 15.8901L46.9428 15.208Z" fill="#C2C2CC"/>
<path d="M46.9428 33.9927V35.1733L46.6113 34.583L46.9428 33.9927Z" fill="#C2C2CC"/>
<path d="M46.9428 37.8998L45.8458 35.9461L44.6637 38.0512H46.9428V37.8998Z" fill="#C2C2CC"/>
<path d="M7.18516 39.802L6.42894 39.386H6.95141L7.18516 39.802Z" fill="#C2C2CC"/>
<path d="M6.20198 38.0512H4.1764V37.5898L5.05956 36.0167L6.20198 38.0512Z" fill="#C2C2CC"/>
<path d="M9.40002 41.0203L8.48228 39.386H11.546V42.2009L9.40002 41.0203Z" fill="#C2C2CC"/>
<path d="M11.546 33.8575V38.0512H7.73286L5.82514 34.6539L7.51695 31.6411L11.546 33.8575Z" fill="#C2C2CC"/>
<path d="M12.8805 42.9352V39.386H17.3964L19.4517 43.0463L16.2673 44.7982L12.8805 42.9352Z" fill="#C2C2CC"/>
<path d="M12.8805 38.0512H16.6467L15.5193 36.0433L12.8805 34.5918V38.0512Z" fill="#C2C2CC"/>
<path d="M20.6216 42.403L18.9275 39.386H21.5957L23.8505 40.6264L20.6216 42.403Z" fill="#C2C2CC"/>
<path d="M18.1778 38.0512H19.1695L17.7347 37.2619L18.1778 38.0512Z" fill="#C2C2CC"/>
<path d="M25.2352 39.8649L24.3645 39.386H26.1059L25.2352 39.8649Z" fill="#C2C2CC"/>
<path d="M26.6199 40.6264L28.8747 39.386H31.8353L30.0723 42.5254L26.6199 40.6264Z" fill="#C2C2CC"/>
<path d="M31.3012 38.0512H32.5847L33.1585 37.0295L31.3012 38.0512Z" fill="#C2C2CC"/>
<path d="M31.2417 43.169L33.3659 39.386H37.6584V43.5938L34.8364 45.1462L31.2417 43.169Z" fill="#C2C2CC"/>
<path d="M34.1153 38.0512H37.6584V34.5538L35.3733 35.811L34.1153 38.0512Z" fill="#C2C2CC"/>
<path d="M38.993 42.8598V39.386H42.3837L41.0766 41.7135L38.993 42.8598Z" fill="#C2C2CC"/>
<path d="M38.993 38.0512H43.1331L45.0805 34.583L43.3164 31.4416L38.993 33.8198V38.0512Z" fill="#C2C2CC"/>
<path d="M43.2915 40.4949L43.9142 39.386H45.3074L43.2915 40.4949Z" fill="#C2C2CC"/>
<path d="M4.29427 34.6539L4.1764 34.8639V34.4439L4.29427 34.6539Z" fill="#C2C2CC"/>
<path d="M5.05956 33.2907L4.1764 31.7179V29.8036L6.34733 30.9978L5.05956 33.2907Z" fill="#C2C2CC"/>
<path d="M2.84188 29.3417V29.0696L2.62088 28.948L2.84188 29.3417Z" fill="#C2C2CC"/>
<path d="M7.00071 29.8339L4.1764 28.2801V22.9375L7.22001 21.2633L9.51675 25.3535L7.00071 29.8339Z" fill="#C2C2CC"/>
<path d="M2.84188 27.5461V23.6718L0.968165 24.7025L0.60266 25.3535L1.38326 26.7435L2.84188 27.5461Z" fill="#C2C2CC"/>
<path d="M6.56635 20.0996L4.1764 21.4143V18.989L5.05956 17.4162L6.56635 20.0996Z" fill="#C2C2CC"/>
<path d="M2.84188 22.1483V21.3656L2.20579 22.4983L2.84188 22.1483Z" fill="#C2C2CC"/>
<path d="M4.29427 16.0531L4.1764 16.2631V15.8431L4.29427 16.0531Z" fill="#C2C2CC"/>
<path d="M2.84188 18.6396V13.6219C1.24499 16.6706 0.245654 20.0824 0 23.7004L2.84188 18.6396Z" fill="#C2C2CC"/>
<path d="M5.82203 11.9337H6.60744L6.95849 11.3085L5.82203 11.9337Z" fill="#C2C2CC"/>
<path d="M5.85773 13.2685L5.05956 14.69L4.2614 13.2685H5.85773Z" fill="#C2C2CC"/>
<path d="M7.38888 13.2685H11.546V17.3601L7.73597 19.4561L5.82514 16.0531L7.38888 13.2685Z" fill="#C2C2CC"/>
<path d="M11.546 11.9337H8.13831L9.17363 10.0899L11.546 8.7849V11.9337Z" fill="#C2C2CC"/>
<path d="M12.8805 13.2685V16.6258L15.1042 15.4027L16.3027 13.2685H12.8805Z" fill="#C2C2CC"/>
<path d="M17.0521 11.9337H12.8805V8.05063L15.9508 6.36161L19.1828 8.13961L17.0521 11.9337Z" fill="#C2C2CC"/>
<path d="M17.8339 13.2685L17.3196 14.1841L18.9839 13.2685H17.8339Z" fill="#C2C2CC"/>
<path d="M21.4104 11.9337H18.5833L20.3524 8.7832L23.7451 10.6493L21.4104 11.9337Z" fill="#C2C2CC"/>
<path d="M24.1795 11.9337L25.1295 11.4111L26.0795 11.9337H24.1795Z" fill="#C2C2CC"/>
<path d="M31.2757 13.2685L33.9323 14.7299L33.1117 13.2685H31.2757Z" fill="#C2C2CC"/>
<path d="M32.362 11.9337H28.8492L26.5145 10.6493L30.4311 8.49471L32.362 11.9337Z" fill="#C2C2CC"/>
<path d="M34.6426 13.2685L36.1474 15.9485L37.6584 16.7797V13.2685H34.6426Z" fill="#C2C2CC"/>
<path d="M37.6584 11.9337H33.8929L31.6007 7.8514L34.6253 6.1876L37.6584 7.85622V11.9337Z" fill="#C2C2CC"/>
<path d="M38.993 13.2685V17.514L42.9078 19.6675L45.0289 15.8901L43.5567 13.2685H38.993Z" fill="#C2C2CC"/>
<path d="M42.8072 11.9337H38.993V8.59021L41.7954 10.1319L42.8072 11.9337Z" fill="#C2C2CC"/>
<path d="M45.0876 13.2685L45.7942 14.527L46.5008 13.2685H45.0876Z" fill="#C2C2CC"/>
<path d="M45.0705 11.9337H44.3381L44.0106 11.3505L45.0705 11.9337Z" fill="#C2C2CC"/>
<path d="M2.84188 37.2401V32.0673L0.406023 27.7294L0.022667 27.5186C0.301755 31.0131 1.28409 34.3087 2.82799 37.2648L2.84188 37.2401Z" fill="#C2C2CC"/>
<path d="M38.993 45.4239L39.8387 43.918L38.993 44.3833V45.4239Z" fill="#C2C2CC"/>
<path d="M38.993 32.2966L42.6627 30.2777L40.5717 26.5539L38.993 29.3655V32.2966Z" fill="#C2C2CC"/>
<path d="M37.6584 31.7417V33.0306L36.6112 33.6067L37.6584 31.7417Z" fill="#C2C2CC"/>
<path d="M38.993 26.6395L39.8064 25.1908L38.993 23.7421V26.6395Z" fill="#C2C2CC"/>
<path d="M38.993 21.0161L40.5717 23.8277L42.2542 20.8314L38.993 19.0375V21.0161Z" fill="#C2C2CC"/>
<path d="M37.6584 18.3032V18.6393L37.3853 18.153L37.6584 18.3032Z" fill="#C2C2CC"/>
<path d="M38.993 7.06697L40.5575 7.92764L38.993 5.14132V7.06697Z" fill="#C2C2CC"/>
<path d="M37.6584 6.3327L36.0097 5.42584L37.6584 4.51899V6.3327Z" fill="#C2C2CC"/>
<path d="M37.6584 46.6986L36.2211 45.908L37.6584 45.1173V46.6986Z" fill="#C2C2CC"/>
<path d="M14.8829 45.5597L12.8805 46.6612V44.4581L14.8829 45.5597Z" fill="#C2C2CC"/>
<path d="M14.2816 33.8391L12.8805 33.0683V31.3441L14.2816 33.8391Z" fill="#C2C2CC"/>
<path d="M11.546 32.3343V28.9676L10.282 26.7166L8.17033 30.4772L11.546 32.3343Z" fill="#C2C2CC"/>
<path d="M11.0476 25.3535L11.546 26.2411V24.4659L11.0476 25.3535Z" fill="#C2C2CC"/>
<path d="M13.8666 17.6072L12.8805 19.3631V18.1496L13.8666 17.6072Z" fill="#C2C2CC"/>
<path d="M11.546 21.7396V18.8836L8.38963 20.62L10.282 23.9904L11.546 21.7396Z" fill="#C2C2CC"/>
<path d="M14.5661 5.60013L12.8805 6.52739V4.67258L14.5661 5.60013Z" fill="#C2C2CC"/>
<path d="M11.546 7.26138V5.86482L10.4112 7.88569L11.546 7.26138Z" fill="#C2C2CC"/>
<path d="M11.546 44.8421V43.7241L10.6376 43.2245L11.546 44.8421Z" fill="#C2C2CC"/>
<path d="M40.2269 4.6125C42.7911 6.4316 45.0048 8.71207 46.7476 11.3329L42.7727 9.14623L40.2269 4.6125Z" fill="#C2C2CC"/>
<path d="M39.9056 46.5249L42.0536 42.6994L46.1436 40.4495C44.4271 42.8128 42.3154 44.8702 39.9056 46.5249Z" fill="#C2C2CC"/>
<path d="M25.2352 41.3881L29.4187 43.6896L27.6963 46.757H23.0665L21.275 43.5666L25.2352 41.3881Z" fill="#C2C2CC"/>
<path d="M21.5354 46.757L20.1054 44.2102L17.6519 45.5597L19.8283 46.757H21.5354Z" fill="#C2C2CC"/>
<path d="M22.2545 48.0918H22.2848L22.2984 48.1159L22.2545 48.0918Z" fill="#C2C2CC"/>
<path d="M17.0592 46.757L16.2673 46.3214L15.4756 46.757H17.0592Z" fill="#C2C2CC"/>
<path d="M13.6399 48.0918H19.4854L23.5363 50.3201L23.8874 50.9453C20.2062 50.7197 16.7362 49.7145 13.6399 48.0918Z" fill="#C2C2CC"/>
<path d="M23.816 48.0918H26.9466L25.8393 50.0636L24.5138 49.3345L23.816 48.0918Z" fill="#C2C2CC"/>
<path d="M28.4774 48.0918L28.0286 48.8912L29.4819 48.0918H28.4774Z" fill="#C2C2CC"/>
<path d="M31.9081 46.757L33.4514 45.908L30.588 44.3329L29.2269 46.757H31.9081Z" fill="#C2C2CC"/>
<path d="M32.2509 48.0918L27.2528 50.8413L27.3996 50.922C30.9535 50.6568 34.3048 49.6638 37.3051 48.0918H32.2509Z" fill="#C2C2CC"/>
<path d="M34.6774 46.757L34.8361 46.6697L34.9948 46.757H34.6774Z" fill="#C2C2CC"/>
<path d="M27.5152 0C30.8935 0.26724 34.0867 1.19252 36.9665 2.64746H30.9592L27.6589 0.832042L27.2682 0.136029L27.5152 0Z" fill="#C2C2CC"/>
<path d="M34.625 4.66408L33.3854 3.98224H35.8646L34.625 4.66408Z" fill="#C2C2CC"/>
<path d="M33.2406 5.42584L30.6164 3.98224H29.428L30.947 6.68751L33.2406 5.42584Z" fill="#C2C2CC"/>
<path d="M29.7774 7.33081L27.8972 3.98224H23.0484L21.0061 7.6193L25.1298 9.88758L29.7774 7.33081Z" fill="#C2C2CC"/>
<path d="M23.7978 2.64746H27.1474L26.6816 1.81768L25.4463 1.13811L24.2872 1.77602L23.7978 2.64746Z" fill="#C2C2CC"/>
<path d="M19.8362 6.97572L21.5172 3.98224H20.2762L17.3355 5.60013L19.8362 6.97572Z" fill="#C2C2CC"/>
<path d="M23.6647 0.158133L23.3842 0.00368411C20.0226 0.275741 16.8453 1.19904 13.9782 2.64746H19.9337L23.3099 0.7901L23.6647 0.158133Z" fill="#C2C2CC"/>
<path d="M14.3947 3.98224L15.9508 4.83837L17.5072 3.98224H14.3947Z" fill="#C2C2CC"/>
<path d="M8.42278 42.0062L4.30532 39.7411C6.07476 42.359 8.31738 44.6313 10.9099 46.4351L8.42278 42.0062Z" fill="#C2C2CC"/>
<path d="M4.22825 11.287L8.1964 9.104L10.7187 4.6125C8.16948 6.42084 5.96624 8.68515 4.22825 11.287Z" fill="#C2C2CC"/>
<path d="M27.978 14.0098H23.0262C22.2601 14.0098 21.5102 14.2298 20.8655 14.6436L17.7517 16.6423C17.2737 16.9491 16.8666 17.3542 16.5573 17.8306L14.6549 20.7614C14.234 21.4098 14.01 22.1662 14.01 22.9392V28.0686C14.01 28.8021 14.2117 29.5215 14.593 30.1481L16.4953 33.274C16.8438 33.8467 17.3308 34.3227 17.9114 34.6581L20.9243 36.3987C21.5326 36.7501 22.2228 36.9351 22.9253 36.9351H27.7951C28.6384 36.9351 29.4601 36.6686 30.1429 36.1736L33.6473 33.6331C34.0265 33.3582 34.3545 33.0188 34.6163 32.6304L36.2522 30.2036C36.6975 29.543 36.9354 28.7645 36.9354 27.9678V22.8376C36.9354 22.1285 36.7469 21.4322 36.3892 20.8199L34.7343 17.9871C34.3972 17.4101 33.9208 16.9267 33.3488 16.5812L30.0464 14.5861C29.4223 14.209 28.7071 14.0098 27.978 14.0098Z" fill="#C2C2CC"/>
<path d="M68.1054 37.9062V29.4307H74.1593C79.2873 29.4307 82.1362 25.9408 82.1362 21.8099C82.1362 17.6434 79.323 14.1534 74.1593 14.1534H63.0486V37.9062H68.1054ZM73.4471 24.9793H68.1054V18.6049H73.4471C75.4413 18.6049 76.9726 19.8156 76.9726 21.8099C76.9726 23.7685 75.4413 24.9793 73.4471 24.9793Z" fill="#C2C2CC"/>
<path d="M104.215 37.9062L98.838 28.8609C101.402 28.2555 104.073 25.9764 104.073 21.8099C104.073 17.3941 101.01 14.1534 96.0603 14.1534H84.9495V37.9062H90.0063V29.4663H93.7099L98.375 37.9062H104.215ZM95.348 25.0149H90.0063V18.6049H95.348C97.3423 18.6049 98.8736 19.8156 98.8736 21.7743C98.8736 23.8041 97.3423 25.0149 95.348 25.0149Z" fill="#C2C2CC"/>
<path d="M118.765 38.3335C125.923 38.3335 131.158 33.2055 131.158 26.0476C131.158 18.8897 125.923 13.7617 118.765 13.7617C111.572 13.7617 106.337 18.8897 106.337 26.0476C106.337 33.2055 111.572 38.3335 118.765 38.3335ZM118.765 33.8465C114.349 33.8465 111.536 30.4634 111.536 26.0476C111.536 21.5962 114.349 18.2487 118.765 18.2487C123.145 18.2487 125.959 21.5962 125.959 26.0476C125.959 30.4634 123.145 33.8465 118.765 33.8465Z" fill="#C2C2CC"/>
<path d="M142.826 38.3335C149.2 38.3335 152.334 35.0573 152.334 30.7127C152.334 21.8455 138.695 24.3739 138.695 20.6347C138.695 19.2102 139.906 18.2844 142.043 18.2844C144.464 18.2844 147.028 19.1034 148.951 20.884L151.764 17.1092C149.414 14.9369 146.28 13.7973 142.505 13.7973C136.915 13.7973 133.496 17.0736 133.496 21.0264C133.496 29.9649 147.171 27.0803 147.171 31.2113C147.171 32.6001 145.853 33.8465 143.04 33.8465C139.763 33.8465 137.164 32.3508 135.49 30.6059L132.712 34.5587C134.956 36.8022 138.232 38.3335 142.826 38.3335Z" fill="#C2C2CC"/>
<path d="M160.404 37.9062V29.4307H166.458C171.586 29.4307 174.435 25.9408 174.435 21.8099C174.435 17.6434 171.622 14.1534 166.458 14.1534H155.347V37.9062H160.404ZM165.746 24.9793H160.404V18.6049H165.746C167.74 18.6049 169.271 19.8156 169.271 21.8099C169.271 23.7685 167.74 24.9793 165.746 24.9793Z" fill="#C2C2CC"/>
<path d="M194.057 37.9062V33.4548H182.305V28.0419H193.807V23.5904H182.305V18.6049H194.057V14.1534H177.248V37.9062H194.057Z" fill="#C2C2CC"/>
<path d="M216.919 37.9062L211.542 28.8609C214.106 28.2555 216.777 25.9764 216.777 21.8099C216.777 17.3941 213.714 14.1534 208.764 14.1534H197.654V37.9062H202.711V29.4663H206.414L211.079 37.9062H216.919ZM208.052 25.0149H202.711V18.6049H208.052C210.047 18.6049 211.578 19.8156 211.578 21.7743C211.578 23.8041 210.047 25.0149 208.052 25.0149Z" fill="#C2C2CC"/>
<path d="M225.238 37.9062V14.1534H220.181V37.9062H225.238Z" fill="#C2C2CC"/>
<path d="M238.072 38.3335C244.447 38.3335 247.581 35.0573 247.581 30.7127C247.581 21.8455 233.941 24.3739 233.941 20.6347C233.941 19.2102 235.152 18.2844 237.289 18.2844C239.71 18.2844 242.274 19.1034 244.197 20.884L247.011 17.1092C244.66 14.9369 241.527 13.7973 237.752 13.7973C232.161 13.7973 228.742 17.0736 228.742 21.0264C228.742 29.9649 242.417 27.0803 242.417 31.2113C242.417 32.6001 241.099 33.8465 238.286 33.8465C235.01 33.8465 232.41 32.3508 230.736 30.6059L227.959 34.5587C230.202 36.8022 233.478 38.3335 238.072 38.3335Z" fill="#C2C2CC"/>
<path d="M254.246 17.0301L253.776 16.3587C254.053 16.2507 254.211 16.023 254.211 15.7136C254.211 15.2612 253.878 14.9868 253.341 14.9868H252.5V17.0301H252.879V16.4346H253.341C253.367 16.4346 253.393 16.4346 253.419 16.4317L253.837 17.0301H254.246ZM253.828 15.7136C253.828 15.9705 253.656 16.1223 253.323 16.1223H252.879V15.3079H253.323C253.656 15.3079 253.828 15.4568 253.828 15.7136Z" fill="#C2C2CC"/>
<path fill-rule="evenodd" clip-rule="evenodd" d="M256 16.0089C256 17.4598 254.824 18.636 253.373 18.636C251.922 18.636 250.746 17.4598 250.746 16.0089C250.746 14.558 251.922 13.3818 253.373 13.3818C254.824 13.3818 256 14.558 256 16.0089ZM255.708 16.0089C255.708 17.2985 254.663 18.3441 253.373 18.3441C252.083 18.3441 251.038 17.2985 251.038 16.0089C251.038 14.7193 252.083 13.6737 253.373 13.6737C254.663 13.6737 255.708 14.7193 255.708 16.0089Z" fill="#C2C2CC"/>
</svg>
