<svg width="195" height="87" viewBox="0 0 195 87" fill="none" xmlns="http://www.w3.org/2000/svg">
<path d="M191.461 61.679L190.56 60.3925C191.092 60.1856 191.394 59.7493 191.394 59.1564C191.394 58.2894 190.756 57.7637 189.727 57.7637H188.116V61.679H188.843V60.538H189.727C189.777 60.538 189.828 60.538 189.878 60.5324L190.678 61.679H191.461ZM190.661 59.1564C190.661 59.6486 190.331 59.9395 189.694 59.9395H188.843V58.3789H189.694C190.331 58.3789 190.661 58.6642 190.661 59.1564Z" fill="#C2C2CC"/>
<path fill-rule="evenodd" clip-rule="evenodd" d="M194.823 59.721C194.823 62.5013 192.57 64.755 189.789 64.755C187.009 64.755 184.755 62.5013 184.755 59.721C184.755 56.9407 187.009 54.687 189.789 54.687C192.57 54.687 194.823 56.9407 194.823 59.721ZM194.264 59.721C194.264 62.1921 192.26 64.1957 189.789 64.1957C187.318 64.1957 185.315 62.1921 185.315 59.721C185.315 57.2499 187.318 55.2463 189.789 55.2463C192.26 55.2463 194.264 57.2499 194.264 59.721Z" fill="#C2C2CC"/>
<path d="M119.584 1.4892L114.196 11.3472C114.196 11.3472 108.062 10.4176 100.319 10.5418C93.0322 10.9658 86.6412 12.6462 81.1332 16.2894C76.3232 19.471 69.5386 26.6339 69.5571 33.1274C68.1 43.1655 77.5154 49.4037 77.5154 49.4037C77.5154 49.4037 66.391 44.3409 65.1047 36.0417C63.5716 26.1495 66.9179 17.2663 74.3332 10.5418C81.3901 4.14243 88.9521 1.72453 98.3777 0.342804C106.584 -0.860126 119.584 1.4892 119.584 1.4892Z" fill="#C2C2CC"/>
<path d="M105.698 27.9101L110.669 18.7582C110.669 18.7582 99.2056 16.7835 92.1397 18.3627C84.4954 20.0711 78.03 23.394 74.8908 30.5704C73.769 33.1349 72.1791 38.5292 74.891 43.5336C76.8825 47.2088 81.7449 49.4906 81.7449 49.4906C81.7449 49.4906 76.3888 45.1026 77.4185 38.4743C78.5252 31.3497 85.3693 28.3877 92.5352 27.5902C98.1901 26.9608 105.698 27.9101 105.698 27.9101Z" fill="#C2C2CC"/>
<path d="M100.727 38.4743L103.156 33.4465C103.156 33.4465 92.264 31.3468 86.1627 34.7693C82.8791 36.6113 80.8158 38.8901 80.841 42.6549C80.8614 45.6956 84.5696 49.4906 84.5696 49.4906C84.5696 49.4906 82.6351 44.8489 83.8591 42.1079C85.421 38.6102 89.4285 38.0268 93.2592 38.0268C97.6148 38.0268 100.727 38.4743 100.727 38.4743Z" fill="#C2C2CC"/>
<rect x="98.397" y="86.313" width="15.7222" height="6.39674" transform="rotate(-90 98.397 86.313)" fill="#C2C2CC"/>
<rect x="91.6055" y="70.5493" width="13.186" height="6.43904" fill="#C2C2CC"/>
<path d="M9.68434 86.1574H16.6882V61.6006H26.3725V55.8938H0V61.6006H9.68434V86.1574Z" fill="#C2C2CC"/>
<path d="M29.7086 86.1574H36.7125V55.8938H29.7086V86.1574Z" fill="#C2C2CC"/>
<path d="M64.3009 55.8938V74.2681L49.2556 55.8938H43.4623V86.1574H50.3797V67.7831L65.4682 86.1574H71.2183V55.8938H64.3009Z" fill="#C2C2CC"/>
<path d="M98.3957 76.9358C96.8893 79.4171 94.2336 80.2802 92.3313 80.2802C87.5036 80.2802 83.1342 76.6892 83.1342 71.0256C83.1342 65.2755 87.155 61.3412 93.0348 61.3412C96.1043 61.3412 98.6551 62.4221 100.86 64.7567L105.356 60.6063C102.416 57.1908 98.0066 55.375 92.6889 55.375C83.0478 55.375 76.0439 61.9033 76.0439 71.0256C76.0439 80.1479 82.8199 86.1574 92.3313 86.1574C96.6547 86.1574 101.995 83.4573 104.794 76.9358V70.55H98.3957V76.9358Z" fill="#C2C2CC"/>
<path d="M117.137 86.1574H124.141V61.6006H133.825V55.8938H107.452V61.6006H117.137V86.1574Z" fill="#C2C2CC"/>
<path d="M144.122 80.537V73.5331H158.173V68.0857H144.122V61.5142H160.032V55.8938H137.161V86.1574H160.594V80.537H144.122Z" fill="#C2C2CC"/>
<path d="M165.734 86.1574H187.913V80.4505H172.738V55.8938H165.734V86.1574Z" fill="#C2C2CC"/>
</svg>
